<svg width="20" height="20" viewBox="0 0 20 20" fill="none" xmlns="http://www.w3.org/2000/svg">
<path d="M16.95 2.58011C18.91 4.53011 18.91 7.70011 16.95 9.65011C15.44 11.1601 13.2 11.4901 11.36 10.6601L9.49 13.9701L6.5 14.2801L5 18.0001H2L1 16.0001L8.95 8.31011C8.03 6.44011 8.33 4.13011 9.88 2.58011C11.83 0.620107 15 0.620107 16.95 2.58011ZM14.44 6.37011C15.18 6.37011 15.77 5.77011 15.77 5.03011C15.77 4.30011 15.18 3.70011 14.44 3.70011C13.71 3.70011 13.11 4.30011 13.11 5.03011C13.11 5.77011 13.71 6.37011 14.44 6.37011Z" fill="white"/>
</svg>
