<svg width="20" height="20" viewBox="0 0 20 20" fill="none" xmlns="http://www.w3.org/2000/svg">
<path d="M14.4801 11.06L7.41006 3.99003L8.91006 2.49003C9.41006 1.93003 11.2101 2.02003 12.4201 2.81003C13.6301 3.61003 13.8501 4.09003 15.3301 4.91003C16.5101 5.55003 17.7801 6.17003 19.7801 5.76003L14.4801 11.06ZM13.7701 11.77L6.70006 4.70003L4.93006 6.47003C4.54006 6.86003 4.54006 7.49003 4.93006 7.88003L5.99006 8.94003C6.38006 9.33003 6.38006 9.97003 5.99006 10.36C5.39006 10.96 4.56006 11.47 3.78006 12.05C3.43006 12.31 3.08006 12.58 2.77006 12.89C1.43006 14.23 0.400059 16.08 1.40006 17.07C2.39006 18.07 4.24006 17.04 5.58006 15.71C5.89006 15.4 6.16006 15.05 6.43006 14.69C7.00006 13.91 7.51006 13.08 8.12006 12.48C8.51006 12.09 9.14006 12.09 9.53006 12.48L10.5901 13.54C10.9801 13.93 11.6101 13.93 12.0001 13.54L13.7701 11.77Z" fill="white"/>
</svg>
