<svg width="20" height="20" viewBox="0 0 20 20" fill="none" xmlns="http://www.w3.org/2000/svg">
<path d="M9 0C4.02944 0 0 4.02944 0 9C0 13.9706 4.02944 18 9 18C13.9706 18 18 13.9706 18 9C18 4.02944 13.9706 0 9 0ZM11.92 12.34C11.92 12.69 12.06 12.97 12.28 13C12.5 13.03 12.75 12.78 12.86 12.4L13.06 12.48C13.7781 12.8638 14.1287 13.6985 13.9 14.48C13.7489 15.1714 13.1565 15.6781 12.45 15.72C11.96 14.51 10.34 15.78 8.89 15.5C8.27805 15.346 7.78084 14.9011 7.56 14.31C8.75 14.2 10.41 12.58 11.92 12.34ZM8 11.27C8.91848 11.2685 9.69521 10.59 9.82 9.68C10.2586 10.2213 10.2287 11.0037 9.75 11.51C9.4951 11.7332 9.15596 11.8349 8.8203 11.7889C8.48463 11.7429 8.18541 11.5536 8 11.27ZM11 10.51C11.41 10.9 14 10.45 14.52 11.6C13.57 11.4 11.57 12.21 11.05 10.52L11 10.51ZM9.73 5.45C9.73 5.54 9.73 5.63 9.73 5.72C9.08 4.95 8.4 4.65 8.12 5.15C7.84 5.65 9.12 6.26 8.88 7.03C8.64 7.8 7.61 7.59 7 8.64C6.39 9.69 6.51 11.06 8.24 12.31C7.0476 12.1778 6.04861 11.3479 5.7 10.2C5.3 9 5.61 7.94 4.92 7.74C4 7.46 3 8.71 3 9.8C1.74 8.54 3.05 6.94 1.8 5.62C3.50107 1.99793 7.64429 0.222881 11.44 1.49C10.3385 2.51082 9.7178 3.94827 9.73 5.45Z" fill="white"/>
</svg>
