<svg width="20" height="20" viewBox="0 0 20 20" fill="none" xmlns="http://www.w3.org/2000/svg">
<path d="M16.6801 9.76992C15.3401 11.1099 13.3801 11.4399 11.7301 10.7599L6.32006 17.2799C5.33006 18.2699 3.73006 18.2699 2.74006 17.2799C1.75006 16.2899 1.75006 14.6899 2.74006 13.7099L9.26006 8.28992C8.58006 6.63992 8.91006 4.67992 10.2501 3.33992C11.5301 2.05992 13.3701 1.71992 14.9701 2.27992L12.0801 5.16992L14.9001 7.98992L17.7601 5.11992C18.2901 6.69992 17.9401 8.50992 16.6801 9.76992ZM3.81006 16.2099C4.21006 16.5999 4.85006 16.5999 5.24006 16.2099C5.64006 15.8099 5.64006 15.1699 5.24006 14.7799C4.85006 14.3799 4.21006 14.3799 3.81006 14.7799C3.42006 15.1699 3.42006 15.8099 3.81006 16.2099Z" fill="white"/>
</svg>
