<svg width="20" height="20" viewBox="0 0 20 20" fill="none" xmlns="http://www.w3.org/2000/svg">
<path d="M17.74 2.76C19.42 4.45 19.42 7.17 17.74 8.86L16.21 10.38C15.09 11.5 13.51 11.85 12.07 11.47L14.69 8.86L15.45 8.09L16.21 7.33C17.05 6.49 17.05 5.13 16.21 4.29C15.37 3.44 14.01 3.44 13.17 4.29L12.4 5.05L9.02 8.43C8.65 6.99 9 5.41 10.12 4.29L11.64 2.76C13.33 1.08 16.06 1.08 17.74 2.76ZM8.59 13.43L13.93 8.09C14.35 7.67 14.35 6.99 13.93 6.57C13.49 6.14 12.8 6.18 12.4 6.57L7.07 11.91C6.65 12.33 6.65 13.01 7.07 13.43C7.51 13.86 8.2 13.82 8.59 13.43ZM7.83 15.72L11.97 11.57C12.35 13.01 12 14.59 10.88 15.71L9.36 17.24C7.67 18.92 4.95 18.92 3.26 17.24C1.58 15.56 1.58 12.82 3.26 11.14L4.79 9.62C5.91 8.5 7.49 8.15 8.93 8.52L4.79 12.67C3.94 13.51 3.94 14.87 4.79 15.72C5.63 16.56 6.99 16.56 7.83 15.72Z" fill="white"/>
</svg>
