<svg width="20" height="20" viewBox="0 0 20 20" fill="none" xmlns="http://www.w3.org/2000/svg">
<path d="M9 0C4.02944 0 0 4.02944 0 9C0 13.9706 4.02944 18 9 18C13.9706 18 18 13.9706 18 9C18 4.02944 13.9706 0 9 0ZM12.46 11.95C12.46 13.42 11.66 15.25 8.4 16.65C8.7 12.48 5.88 12.96 5.2 11.65C5.32586 10.5486 6.00438 9.5874 7 9.1C5.44817 8.83383 4.00093 8.14137 2.82 7.1C2.86979 7.57063 3.099 8.00398 3.46 8.31C2.67791 8.0152 2.00216 7.49271 1.52 6.81C2.49712 3.58501 5.40349 1.32806 8.77 1.18C7.93 2.56 7.27 5.31 8.77 6.75C7.23 7 6.26 5 5.41 5.79C4.28 6.85 5.74 8.3 8.83 8.87C12.12 9.46 12.49 10.45 12.46 11.95ZM13.8 7.95C13.48 6.84 14.42 5.72 15.49 4.81C16.8463 6.76503 17.16 9.26004 16.33 11.49C15.56 9.6 14.16 9.17 13.8 7.92V7.95Z" fill="white"/>
</svg>
