<svg width="20" height="20" viewBox="0 0 20 20" fill="none" xmlns="http://www.w3.org/2000/svg">
<path d="M13 11V4C13 3.45 12.55 3 12 3H10.33L9 1H5L3.67 3H2C1.45 3 1 3.45 1 4V11C1 11.55 1.45 12 2 12H12C12.55 12 13 11.55 13 11ZM7 4.5C8.38 4.5 9.5 5.62 9.5 7C9.5 8.38 8.38 9.5 7 9.5C5.62 9.5 4.5 8.38 4.5 7C4.5 5.62 5.62 4.5 7 4.5ZM14 6H19V16.5C19 17.88 17.88 19 16.5 19C15.12 19 14 17.88 14 16.5C14 15.12 15.12 14 16.5 14C16.67 14 16.84 14.02 17 14.05V9H14V6ZM10 14.05V13H12V16.5C12 17.88 10.88 19 9.5 19C8.12 19 7 17.88 7 16.5C7 15.12 8.12 14 9.5 14C9.67 14 9.84 14.02 10 14.05Z" fill="white"/>
</svg>
