<svg width="20" height="20" viewBox="0 0 20 20" fill="none" xmlns="http://www.w3.org/2000/svg">
<path d="M14.27 6.87001L10 3.14001L5.73 6.87001L5 6.14001L10 1.76001L15 6.14001L14.27 6.87001ZM14 8.42001L9.95 11.85L6 8.38001V7.64001L10 4.14001L14 7.64001V8.42001ZM11 9.70001V8.00001H9V9.70001H11ZM9.27 13.73L5 10L0.73 13.73L0 13L5 8.62001L10 13L9.27 13.73ZM19.27 13.73L15 10L10.73 13.73L10 13L15 8.62001L20 13L19.27 13.73ZM5 11L9 14.5V18H1V14.5L5 11ZM15 11L19 14.5V18H11V14.5L15 11ZM6 17V15H4V17H6ZM16 17V15H14V17H16Z" fill="white"/>
</svg>
