<svg width="20" height="20" viewBox="0 0 20 20" fill="none" xmlns="http://www.w3.org/2000/svg">
<path d="M9 0C4.02944 0 0 4.02944 0 9C0 13.9706 4.02944 18 9 18C13.9706 18 18 13.9706 18 9C18 4.02944 13.9706 0 9 0ZM16.5 6.48C16.2261 7.37642 15.5923 8.11888 14.75 8.53C14.3001 6.84078 13.0923 5.45568 11.48 4.78C11.6095 4.3363 11.8886 3.95113 12.27 3.69C11.84 3.41 11.27 3.27 10.93 3.76C10.4 4.45 10.93 5.37 11.14 5.76V5.9C10.5848 5.56323 10.1506 5.05906 9.9 4.46C8.93375 4.42897 7.97797 4.66791 7.14 5.15C7.05301 4.5854 7.108 4.00803 7.3 3.47C8.03333 3.54 8.75333 3.24 9.22 2.67C9.68 2.15 9.09 1.49 8.63 1.09H8.99C10.3514 1.08082 11.6918 1.4254 12.88 2.09C14.2401 3.09523 15.0742 4.66042 15.15 6.35C15.39 6.35 15.85 5.8 16.06 5.43C16.2319 5.7689 16.3789 6.11982 16.5 6.48ZM9 16.84C6.95 14.76 9.25 13.09 8 11.6C7.08 10.75 5.71 11.34 4.89 10.37C4.60799 8.89673 5.15714 7.38753 6.32 6.44C6.84 6 10.32 5.44 11.74 6.66C12.5705 7.37534 13.1548 8.33398 13.41 9.4C13.8689 9.43467 14.3279 9.33383 14.73 9.11C15.14 12.09 11.58 15.85 9 16.84ZM5.15 2.09C5.93621 1.79025 6.8256 2.062 7.31 2.75C6.8904 3.13039 6.36924 3.38055 5.81 3.47C5.83068 3.17555 5.8947 2.88576 6 2.61L5.15 2.09Z" fill="white"/>
</svg>
