<svg width="20" height="20" viewBox="0 0 20 20" fill="none" xmlns="http://www.w3.org/2000/svg">
<path d="M10.4401 3.01995L12.2601 1.19995L18.6201 7.54995L16.7901 9.36995C15.7401 8.68995 14.3101 8.79995 13.3801 9.72995L12.6301 10.48C11.7101 11.41 11.5901 12.83 12.2801 13.89L10.4501 15.71L8.04006 13.3L5.24006 16.09C4.82006 16.51 1.86006 18.7999 1.44006 18.3799C1.02006 17.9599 3.30006 14.99 3.72006 14.57L6.51006 11.78L4.10006 9.35995L5.93006 7.53995C6.98006 8.22995 8.41006 8.10995 9.33006 7.17995L10.0801 6.42995C11.0101 5.50995 11.1301 4.07995 10.4401 3.01995Z" fill="white"/>
</svg>
