<svg width="20" height="20" viewBox="0 0 20 20" fill="none" xmlns="http://www.w3.org/2000/svg">
<path d="M13.1099 4.36002L9.8699 7.60002L7.9999 5.73002L11.2399 2.49002C11.5899 2.15002 12.2899 2.29002 12.7999 2.81002C13.3199 3.32002 13.4599 4.02002 13.1099 4.36002ZM5.1099 6.13002L6.0199 5.01002L15.0299 14.02L13.8399 14.86C13.1299 15.57 11.2099 16.02 10.0199 16.02H6.1399L4.8999 17.26C4.3099 17.85 3.3599 17.85 2.7799 17.26C2.1899 16.68 2.1899 15.73 2.7799 15.14L4.0199 13.9V10.02C4.0199 8.89002 4.4199 6.83002 5.1099 6.13002ZM12.3699 10.1L15.6099 6.86002C15.9499 6.51002 16.6499 6.65002 17.1599 7.17002C17.6799 7.68002 17.8199 8.38002 17.4699 8.72002L14.2299 11.97L12.3699 10.1Z" fill="white"/>
</svg>
