<svg width="20" height="20" viewBox="0 0 20 20" fill="none" xmlns="http://www.w3.org/2000/svg">
<path d="M17.6 2.39992C16.8 1.59992 15.5 2.29992 14.9 2.89992L11.4 6.69992L9 5.69992L9.6 5.09992C9.8 4.89992 9.8 4.59992 9.6 4.39992C9.5 4.19992 9.2 4.29992 9 4.39992L8.1 5.29992L6.3 4.49992L6.8 3.99992C7 3.79992 7 3.49992 6.8 3.39992C6.6 3.19992 6.3 3.19992 6.1 3.39992L5.3 4.19992L4.8 3.99992C4 3.59992 3.1 3.69992 2.5 4.39992L8.3 10.1999L6 12.5999L2.5 12.3999L2 13.0999L5.1 14.8999L6.9 17.9999L7.6 17.4999L7.4 13.9999L9.9 11.6999L15.7 17.4999C16.3 16.8999 16.5 15.8999 16.1 15.1999L15.9 14.6999L16.7 13.8999C16.9 13.6999 16.9 13.3999 16.7 13.1999C16.5 12.9999 16.2 12.9999 16 13.1999L15.5 13.6999L14.7 11.7999L15.6 10.8999C15.8 10.6999 15.8 10.3999 15.6 10.1999C15.4 9.99992 15.1 9.99992 15 10.1999L14.4 10.7999L13.4 8.39992L17.2 4.99992C17.8 4.49992 18.4 3.09992 17.6 2.39992Z" fill="white"/>
</svg>
