<svg width="20" height="20" viewBox="0 0 20 20" fill="none" xmlns="http://www.w3.org/2000/svg">
<g clip-path="url(#clip0_263_11699)">
<path d="M0 18H10V17.74C11.52 18.14 13.17 18.09 14.76 17.5C18.9 15.98 21.03 11.38 19.51 7.24C18.08 3.35 13.93 1.24 10 2.26V2H0L0 18ZM9 3V17H1V3H9ZM14.45 11.22C13.77 12.57 12.13 13.12 10.78 12.45C10.47 12.3 10.21 12.1 10 11.86V8.13C10.8 7.27 12.11 7 13.22 7.55C14.57 8.23 15.12 9.87 14.45 11.22ZM11.7 10.4C11.92 10.56 12.23 10.52 12.4 10.3C12.56 10.08 12.52 9.77 12.3 9.6C12.08 9.43 11.77 9.48 11.6 9.7C11.44 9.91 11.48 10.23 11.7 10.4ZM14.71 14.07C13.54 14.85 12.15 15.06 10.88 14.76C10.61 14.7 10.44 14.42 10.51 14.15C10.58 13.88 10.85 13.72 11.13 13.79L11.3 13.83C12.26 14 13.28 13.82 14.16 13.24C14.63 12.92 15.02 12.52 15.3 12.06C15.45 11.83 15.75 11.76 15.99 11.9C16.22 12.05 16.29 12.36 16.15 12.59C15.79 13.16 15.31 13.67 14.71 14.07ZM15.76 15.64C14.28 16.63 12.55 16.96 10.92 16.7C10.64 16.65 10.45 16.38 10.51 16.1C10.56 15.83 10.83 15.65 11.12 15.71L11.34 15.75C12.65 15.9 14.02 15.61 15.21 14.81C15.92 14.34 16.48 13.74 16.91 13.07C17.05 12.83 17.36 12.76 17.59 12.91C17.83 13.05 17.9 13.36 17.75 13.6C17.26 14.39 16.59 15.09 15.76 15.64Z" fill="white"/>
</g>
<defs>
<clipPath id="clip0_263_11699">
<rect width="20" height="20" fill="white"/>
</clipPath>
</defs>
</svg>
