<svg width="20" height="20" viewBox="0 0 20 20" fill="none" xmlns="http://www.w3.org/2000/svg">
<path fill-rule="evenodd" clip-rule="evenodd" d="M16.1999 14.9001C14.2999 15.7001 12.1999 16.1001 10.0999 16.1001C7.29992 16.1001 4.59992 15.4001 2.19992 14.0001C1.99992 13.9001 1.89992 14.1001 1.99992 14.2001C4.19992 16.2001 6.99992 17.2001 9.89992 17.2001C12.1999 17.2001 14.4999 16.5001 16.3999 15.2001C16.7999 15.1001 16.4999 14.7001 16.1999 14.9001ZM17.9999 13.9001C17.0999 13.5001 15.9999 13.6001 15.1999 14.2001C14.9999 14.3001 15.0999 14.5001 15.1999 14.4001C15.7999 14.3001 16.9999 14.2001 17.1999 14.5001C17.3999 14.8001 16.9999 16.0001 16.6999 16.5001C16.5999 16.7001 16.7999 16.7001 16.8999 16.6001C17.6999 15.9001 18.0999 14.9001 17.9999 13.9001ZM8.99992 12.6001C10.0999 12.7001 11.1999 12.2001 11.8999 11.3001C12.1999 11.7001 12.4999 12.1001 12.8999 12.5001C12.9999 12.6001 13.1999 12.6001 13.2999 12.5001C13.5999 12.2001 14.2999 11.6001 14.5999 11.3001C14.6999 11.2001 14.6999 11.0001 14.5999 10.8001C14.1999 10.4001 13.9999 9.8001 13.8999 9.2001V6.5001C13.8999 5.4001 13.9999 4.3001 13.0999 3.5001C12.3999 2.9001 11.3999 2.6001 10.4999 2.6001C8.89992 2.7001 6.99992 3.3001 6.69992 5.3001C6.69992 5.5001 6.79992 5.6001 6.99992 5.6001L8.69992 5.8001C8.89992 5.8001 8.99992 5.6001 8.99992 5.5001C9.09992 4.8001 9.69992 4.4001 10.3999 4.5001C10.7999 4.5001 11.0999 4.7001 11.3999 5.0001C11.5999 5.4001 11.6999 5.8001 11.5999 6.3001V6.5001C10.4999 6.5001 9.39992 6.7001 8.29992 7.1001C7.09992 7.5001 6.29992 8.6001 6.39992 9.9001C6.39992 10.0001 6.39992 10.2001 6.39992 10.3001C6.39992 11.6001 7.59992 12.7001 8.99992 12.6001ZM11.4999 7.8001V8.2001C11.5999 8.8001 11.4999 9.5001 11.1999 10.0001C10.9999 10.5001 10.4999 10.8001 9.99992 10.8001C9.29992 10.8001 8.89992 10.3001 8.89992 9.5001C8.89992 8.1001 10.1999 7.8001 11.4999 7.8001Z" fill="white"/>
</svg>
