<svg width="20" height="20" viewBox="0 0 20 20" fill="none" xmlns="http://www.w3.org/2000/svg">
<path d="M4.4601 5.15991L5.0001 7.45991L4.4601 9.74991L6.4701 10.9899L7.7001 12.9999L10.0001 12.4599L12.3001 12.9999L13.5301 10.9899L15.5401 9.74991L15.0001 7.45991L15.5401 5.15991L13.5401 3.91991L12.3001 1.90991L10.0001 2.45991L7.7101 1.91991L6.4601 3.91991L4.4601 5.15991ZM10.0101 11.4999C7.7901 11.4999 6.0001 9.70991 6.0001 7.48991C6.0001 5.28991 7.7901 3.49991 10.0101 3.49991C12.2101 3.49991 14.0001 5.28991 14.0001 7.48991C14.0001 9.70991 12.2101 11.4999 10.0101 11.4999ZM9.9901 10.4999C8.3301 10.4999 7.0001 9.15991 7.0001 7.49991C7.0001 5.84991 8.3301 4.49991 9.9901 4.49991C11.6501 4.49991 13.0001 5.84991 13.0001 7.49991C13.0001 9.15991 11.6501 10.4999 9.9901 10.4999ZM13.8301 11.5999L12.5501 13.8399L10.4701 13.3699L13.0001 19.1999L14.4001 16.9999H16.9001L13.8301 11.5999ZM6.1301 11.6699L7.3801 13.9199L9.5101 13.4099L7.0001 19.1999L5.6001 16.9999H3.1001L6.1301 11.6699Z" fill="white"/>
</svg>
