<svg width="20" height="20" viewBox="0 0 20 20" fill="none" xmlns="http://www.w3.org/2000/svg">
<path d="M13.6501 2.88004C17.5801 4.89004 19.1301 9.72004 17.1201 13.65C15.1101 17.58 10.2901 19.13 6.3501 17.12C4.4801 16.16 3.1501 14.56 2.4901 12.72L4.1301 11.69C4.5801 13.26 5.6501 14.64 7.2101 15.45C10.2201 16.99 13.9001 15.8 15.4401 12.79C16.9901 9.78004 15.8001 6.10004 12.7901 4.55004C9.7801 3.01004 6.1001 4.20004 4.5601 7.21004L6.4401 8.18004L1.4901 11.26L1.1001 5.44004L2.8801 6.35004C4.9001 2.40004 9.7501 0.890041 13.6501 2.88004ZM9.2901 10.71C9.1101 10.53 9.0001 10.28 9.0001 10C9.0001 9.93004 9.0301 9.88004 9.0401 9.81004H9.0301L10.0001 5.00004L10.9701 9.81004L14.0001 13L9.5001 10.88L9.5201 10.86C9.4401 10.82 9.3601 10.77 9.2901 10.71Z" fill="white"/>
</svg>
