<svg width="20" height="20" viewBox="0 0 20 20" fill="none" xmlns="http://www.w3.org/2000/svg">
<path d="M13.8001 9.3001C13.0001 9.2001 12.3001 8.9001 11.8001 8.3001C11.3001 7.7001 10.9001 7.0001 10.8001 6.3001C10.4001 6.2001 10.1001 6.0001 9.8001 5.7001C9.4001 5.2001 9.2001 4.7001 9.1001 4.2001L8.2001 5.1001L7.4001 4.4001C6.8001 3.7001 5.7001 3.7001 5.0001 4.4001L2.5001 6.9001C1.8001 7.6001 1.8001 8.7001 2.5001 9.4001L3.2001 10.2001L2.6001 10.8001C1.9001 11.5001 1.9001 12.6001 2.6001 13.3001L6.9001 17.6001C7.6001 18.3001 8.7001 18.3001 9.3001 17.6001L15.7001 11.1001C15.2001 11.0001 14.7001 10.8001 14.3001 10.4001C14.2001 10.0001 14.0001 9.6001 13.8001 9.3001ZM3.6001 7.6001L5.6001 5.6001C5.9001 5.3001 6.4001 5.3001 6.6001 5.6001L7.1001 6.1001L4.2001 9.2001L3.6001 8.6001C3.4001 8.3001 3.4001 7.9001 3.6001 7.6001ZM4.2001 12.3001C3.9001 12.0001 3.9001 11.6001 4.2001 11.4001L8.5001 7.0001C8.8001 6.7001 9.2001 6.7001 9.4001 7.0001C9.7001 7.3001 9.7001 7.7001 9.4001 7.9001L5.1001 12.2001C4.8001 12.5001 4.4001 12.5001 4.2001 12.3001ZM6.0001 14.1001C5.7001 13.8001 5.7001 13.4001 6.0001 13.2001L10.3001 8.9001C10.6001 8.6001 11.0001 8.6001 11.2001 8.9001C11.5001 9.2001 11.5001 9.6001 11.2001 9.8001L6.9001 14.1001C6.7001 14.4001 6.3001 14.4001 6.0001 14.1001ZM13.1001 11.6001L8.8001 16.0001C8.5001 16.3001 8.1001 16.3001 7.9001 16.0001C7.6001 15.7001 7.6001 15.3001 7.9001 15.1001L12.2001 10.8001C12.5001 10.5001 12.9001 10.5001 13.1001 10.8001C13.3001 10.9001 13.3001 11.4001 13.1001 11.6001ZM17.5001 7.2001C17.3001 7.0001 17.0001 6.8001 16.8001 6.8001C17.2001 5.8001 17.0001 4.6001 16.2001 3.9001C15.4001 3.1001 14.3001 2.9001 13.3001 3.3001C13.2001 3.0001 13.0001 2.7001 12.8001 2.5001C12.1001 1.8001 11.0001 1.8001 10.4001 2.5001C9.7001 3.2001 9.7001 4.3001 10.4001 5.0001C10.7001 5.3001 11.2001 5.5001 11.6001 5.5001C11.5001 6.3001 11.8001 7.1001 12.4001 7.7001C13.0001 8.3001 13.8001 8.5001 14.6001 8.5001C14.6001 9.0001 14.8001 9.4001 15.1001 9.7001C15.8001 10.4001 16.9001 10.4001 17.5001 9.7001C18.2001 9.0001 18.2001 7.9001 17.5001 7.2001Z" fill="white"/>
</svg>
