<svg width="20" height="20" viewBox="0 0 20 20" fill="none" xmlns="http://www.w3.org/2000/svg">
<path d="M10.0001 18C11.1001 18 12.0001 17.1 12.0001 16H8.0001C8.0001 17.1 8.9001 18 10.0001 18ZM14.0001 9.8V7.5C14.0001 5.7 12.8001 4.1 11.0001 3.6C11.1001 3.4 11.1001 3.2 11.2001 3.1C11.1001 2.5 10.6001 2 10.0001 2C9.4001 2 8.9001 2.5 8.9001 3.1C8.9001 3.3 9.0001 3.5 9.1001 3.6C7.3001 4 6.1001 5.6 6.1001 7.5V9.7C6.0001 10.9 5.2001 12 4.1001 12.5V15H16.1001V12.5C14.9001 12.1 14.1001 11 14.0001 9.8Z" fill="white"/>
</svg>
