<svg width="16" height="17" viewBox="0 0 16 17" fill="none" xmlns="http://www.w3.org/2000/svg">
<path d="M8.66537 14.5V15.8333H7.33203V14.5H1.9987C1.63051 14.5 1.33203 14.2015 1.33203 13.8333V3.16667C1.33203 2.79848 1.63051 2.5 1.9987 2.5H5.9987C6.79517 2.5 7.5101 2.84917 7.9987 3.40279C8.4873 2.84917 9.20223 2.5 9.9987 2.5H13.9987C14.3669 2.5 14.6654 2.79848 14.6654 3.16667V13.8333C14.6654 14.2015 14.3669 14.5 13.9987 14.5H8.66537ZM13.332 13.1667V3.83333H9.9987C9.2623 3.83333 8.66537 4.43029 8.66537 5.16667V13.1667H13.332ZM7.33203 13.1667V5.16667C7.33203 4.43029 6.7351 3.83333 5.9987 3.83333H2.66536V13.1667H7.33203Z" fill="black"/>
</svg>
