<svg width="20" height="20" viewBox="0 0 20 20" fill="none" xmlns="http://www.w3.org/2000/svg">
<g clip-path="url(#clip0_263_11767)">
<path d="M10 0C15.52 0 20 4.48 20 10C20 15.52 15.52 20 10 20C4.48 20 0 15.52 0 10C0 4.48 4.48 0 10 0ZM10 0.5C4.75 0.5 0.5 4.75 0.5 10C0.5 15.25 4.75 19.5 10 19.5C15.25 19.5 19.5 15.25 19.5 10C19.5 4.75 15.25 0.5 10 0.5ZM10 1.5C14.7 1.5 18.5 5.3 18.5 10C18.5 14.7 14.7 18.5 10 18.5C5.3 18.5 1.5 14.7 1.5 10C1.5 5.3 5.3 1.5 10 1.5ZM11.8 3.21C11.23 3.21 10.7 3.38 10.25 3.66C11.81 4.03 12.98 5.43 12.98 7.11C12.98 7.8 12.77 8.44 12.43 8.98C13.74 8.69 14.72 7.53 14.72 6.13C14.72 4.52 13.41 3.21 11.8 3.21ZM9.42 4.21C7.81 4.21 6.5 5.52 6.5 7.14C6.5 8.75 7.81 10.06 9.42 10.06C11.04 10.06 12.35 8.75 12.35 7.14C12.35 5.52 11.04 4.21 9.42 4.21ZM13.67 9.22L13.16 9.81C15.5 10.5 15.61 13.42 15.61 13.42H16.89C16.89 8.71 13.67 9.22 13.67 9.22ZM11.57 10.02L9.45 12.11L7.33 10.02C3.12 10.24 3.89 15 3.89 15H14.97C15.44 10.02 11.57 10.02 11.57 10.02Z" fill="white"/>
</g>
<defs>
<clipPath id="clip0_263_11767">
<rect width="20" height="20" fill="white"/>
</clipPath>
</defs>
</svg>
