<svg width="20" height="20" viewBox="0 0 20 20" fill="none" xmlns="http://www.w3.org/2000/svg">
<path d="M10.44 1.6601C9.85 1.0801 8.9 1.0801 8.32 1.6601L2.66 7.3201C2.08 7.9001 2.08 8.8501 2.66 9.4401C3.26 10.0401 4.22 10.0001 4.78 9.4401L10.44 3.7801C11.02 3.2001 11.03 2.2501 10.44 1.6601ZM13.27 4.4901C12.68 3.9001 11.73 3.9001 11.15 4.4901L5.49 10.1501C4.9 10.7301 4.9 11.6801 5.49 12.2701C6.09 12.8701 7.05 12.8201 7.61 12.2701L13.27 6.6101C13.85 6.0301 13.85 5.0801 13.27 4.4901ZM14.33 11.2101L18.51 15.3901C19.1 15.9701 19.1 16.9201 18.51 17.5101C17.92 18.1001 16.97 18.1001 16.39 17.5101L12.21 13.3301L10.44 15.1001C9.85 15.6801 8.9 15.6801 8.32 15.1001C7.73 14.5101 7.73 13.5601 8.32 12.9701L13.98 7.3201C14.56 6.7301 15.51 6.7301 16.1 7.3201C16.68 7.9001 16.68 8.8501 16.1 9.4401L14.33 11.2101ZM5 15.0001C5 13.4101 3.34 11.0001 3.34 11.0001C3.34 11.0001 2 13.7801 2 15.0001C2 16.2201 2.6 17.0001 3.34 17.0001H3.66C4.4 17.0001 5 16.5901 5 15.0001Z" fill="white"/>
</svg>
