<svg width="20" height="20" viewBox="0 0 20 20" fill="none" xmlns="http://www.w3.org/2000/svg">
<path d="M15.45 6.25C17.28 7.19 17.43 9.43 16.15 11.23C15.35 12.35 13.82 13.11 12.69 13.01L10.05 18H8.99996L6.34996 13.01C5.21996 13.17 3.61996 12.38 2.79996 11.22C1.51996 9.42 1.66996 7.18 3.50996 6.25C3.98996 6.01 4.46996 5.92 4.93996 5.94C4.92996 6.34 4.94996 6.74 5.00996 7.15C5.26996 8.84 6.41996 10.68 7.86996 11.52C7.67996 12.07 7.37996 12.51 6.98996 12.77L8.99996 16.58V10.92C7.63996 10.55 6.25996 8.76 5.99996 7C5.59996 4.35 6.99996 2 9.49996 2C12 2 13.4 4.35 13 7C12.74 8.76 11.36 10.55 9.99996 10.92V16.69L12.07 12.85C11.63 12.62 11.3 12.14 11.08 11.55C12.56 10.72 13.73 8.86 13.99 7.15C14.05 6.74 14.07 6.33 14.06 5.93C14.52 5.92 14.98 6.01 15.45 6.25Z" fill="white"/>
</svg>
