<svg width="20" height="20" viewBox="0 0 20 20" fill="none" xmlns="http://www.w3.org/2000/svg">
<path d="M17.54 10.2899C18.71 11.4599 18.71 13.3699 17.54 14.5399C16.36 15.7099 14.46 15.7099 13.29 14.5399L12.95 14.0199C12.95 17.6799 10.95 18.3999 10 18.9999C9.18002 18.3999 7.05002 17.7199 7.05002 14.0199L6.71002 14.5399C5.54002 15.7099 3.64002 15.7099 2.46002 14.5399C1.29002 13.3699 1.29002 11.4599 2.46002 10.2899C2.46002 10.2899 3.48002 9.61988 4.56002 8.98988C3.71002 7.83988 3.20002 6.41988 3.20002 4.87988C3.20002 4.53988 3.23002 4.20988 3.28002 3.87988C3.53002 5.65988 4.47002 7.21988 5.80002 8.29988C6.47002 7.94988 7.65002 7.46988 8.17002 7.37988H8.00002C6.90002 7.37988 6.00002 6.47988 6.00002 5.37988C6.00002 4.27988 6.90002 3.37988 8.00002 3.37988V2.87988C8.00002 2.59988 8.22002 2.37988 8.50002 2.37988C8.78002 2.37988 9.00002 2.59988 9.00002 2.87988V3.37988H11V2.87988C11 2.59988 11.22 2.37988 11.5 2.37988C11.78 2.37988 12 2.59988 12 2.87988V3.37988C13.1 3.37988 14 4.27988 14 5.37988C14 6.47988 13.1 7.37988 12 7.37988H11.83C12.34 7.46988 13.61 7.98988 14.21 8.29988C15.54 7.21988 16.48 5.65988 16.73 3.87988C16.78 4.20988 16.81 4.53988 16.81 4.87988C16.81 6.41988 16.3 7.83988 15.45 8.98988C16.53 9.61988 17.54 10.2899 17.54 10.2899ZM8.50002 6.37988C9.00002 6.37988 9.50002 5.92988 9.50002 5.37988C9.50002 4.82988 9.05002 4.37988 8.50002 4.37988C7.95002 4.37988 7.50002 4.82988 7.50002 5.37988C7.50002 5.92988 7.95002 6.37988 8.50002 6.37988ZM11.5 4.37988C10.95 4.37988 10.5 4.82988 10.5 5.37988C10.5 5.92988 10.95 6.37988 11.5 6.37988C12.05 6.37988 12.5 5.92988 12.5 5.37988C12.5 4.82988 12.05 4.37988 11.5 4.37988ZM9.20002 10.1099C9.08002 10.2199 9.01002 10.3699 9.01002 10.5399C9.03002 10.7899 9.24002 10.9999 9.50002 10.9999H10.5C10.76 10.9999 10.97 10.7899 10.99 10.5399C10.99 10.3899 10.92 10.2499 10.8 10.1099C10.72 10.0499 10.62 9.99988 10.5 9.99988H9.50002C9.38002 9.99988 9.28002 10.0499 9.20002 10.1099ZM12 12.4999C12 12.3799 11.94 12.2199 11.81 12.1199C11.72 12.0499 11.62 11.9999 11.5 11.9999H8.50002C8.38002 11.9999 8.28002 12.0499 8.19002 12.1199C8.08002 12.2199 8.00002 12.3699 8.00002 12.4999C8.00002 12.7799 8.22002 12.9999 8.50002 12.9999H11.5C11.78 12.9999 12 12.7799 12 12.4999ZM8.50002 14.9999H11.5C11.78 14.9999 12 14.7799 12 14.4999C12 14.2199 11.78 13.9999 11.5 13.9999H8.50002C8.22002 13.9999 8.00002 14.2199 8.00002 14.4999C8.00002 14.7799 8.22002 14.9999 8.50002 14.9999ZM9.50002 16.9999H10.5C10.78 16.9999 11 16.7799 11 16.4999C11 16.2199 10.78 15.9999 10.5 15.9999H9.50002C9.22002 15.9999 9.00002 16.2199 9.00002 16.4999C9.00002 16.7799 9.22002 16.9999 9.50002 16.9999Z" fill="white"/>
</svg>
