<svg width="20" height="20" viewBox="0 0 20 20" fill="none" xmlns="http://www.w3.org/2000/svg">
<path d="M10.98 6.78012L15.5 15.0001C14.5 17.0001 12 18.0001 10 18.0001C8 18.0001 5.5 17.0001 4.5 15.0001L9 6.82012C8.25 5.59012 6.72 4.84012 4.71 4.79012L7.17 1.87012C8.85 3.06012 9.63 4.19012 10.14 5.18012C10.7 4.31012 11.34 3.50012 12.84 3.06012L14.67 5.92012C13.25 5.58012 12.03 6.00012 10.98 6.78012ZM8.17 10.4001L7.24 12.0901C7.73 12.2001 8.24 12.2501 8.78 12.2501C10.13 12.2501 11.36 11.8901 12.33 11.3001L11.32 9.48012C10.45 10.0101 9.36 10.3401 8.17 10.4001ZM9.03 15.7801C11.02 15.7801 12.76 15.0401 13.77 13.9201L12.79 12.1601C11.79 13.2801 10.05 14.0301 8.05 14.0301C7.43 14.0301 6.84 13.9501 6.29 13.8201L5.66 14.9701C6.6 15.4701 7.76 15.7801 9.03 15.7801Z" fill="white"/>
</svg>
