<svg width="20" height="20" viewBox="0 0 20 20" fill="none" xmlns="http://www.w3.org/2000/svg">
<path d="M16 11C15.1 10.2 13.8 10.1 12.6 10L13.6 12.1L10 15.8L6.4 12.2L7.4 10C6.2 10 4.9 10.2 4 11C3.2 11.7 3 12.9 3 14.1C3 15 3 16 3 16.9C3 16.9 6.4 18.1 10 18C13.6 18.1 17 16.9 17 16.9C17 16 17 15 17 14.1C17 13 16.8 11.8 16 11Z" fill="white"/>
<path d="M6.59995 9.3C7.39995 9.3 8.59995 8.9 8.79995 8.6C7.99995 7.6 7.29995 6.6 7.99995 4.7C7.99995 4.7 9.09995 5.9 12.3 6.2C12.3 7.2 11.8 7.9 11.2 8.6C11.4 8.9 12.6 9.3 13.4 9.3C14.2 9.3 14.8 9.1 14.8 8.8C14.8 8.5 13.5 7.5 13.2 6.6C12.9 5.7 13.1 4.7 12.7 3.5C12.1 2.1 10.7 2 9.99995 2C9.29995 2 7.89995 2.1 7.29995 3.5C6.89995 4.7 7.09995 5.7 6.79995 6.6C6.49995 7.5 5.19995 8.5 5.19995 8.8C5.19995 9.1 5.79995 9.3 6.59995 9.3Z" fill="white"/>
<path d="M9.99995 11L7.69995 10L9.99995 15.8L12.3 10L9.99995 11Z" fill="white"/>
</svg>
