<svg width="20" height="20" viewBox="0 0 20 20" fill="none" xmlns="http://www.w3.org/2000/svg">
<path d="M17 16.9V14.4C17 13.7 16.9 13 16.5 12.3C16.1 11.6 15.6 11 14.9 10.6C14.2 10.1 12.7 10 12 10L10.4 11.7L11 13V16L10 17.1L9 16V13L9.7 11.7L8 10C7.2 10 5.7 10.1 5 10.6C4.3 11 3.9 11.6 3.5 12.3C3.1 13 3 13.6 3 14.4V16.9C3 16.9 5.6 18 10 18C14.4 18 17 16.9 17 16.9Z" fill="white"/>
<path d="M9.99996 2.1001C8.09996 2.1001 6.99996 3.9001 7.29996 5.9001C7.59996 7.9001 8.59996 9.3001 9.99996 9.3001C11.4 9.3001 12.4 7.9001 12.7 5.9001C13 3.8001 11.9 2.1001 9.99996 2.1001Z" fill="white"/>
</svg>
