<svg width="20" height="20" viewBox="0 0 20 20" fill="none" xmlns="http://www.w3.org/2000/svg">
<path d="M15 4H18V19H2V4H5V3C5 2.59 5.15 2.24 5.44 1.94C5.73 1.65 6.09 1.5 6.5 1.5C6.91 1.5 7.27 1.65 7.56 1.94C7.85 2.24 8 2.59 8 3V4H12V3C12 2.59 12.15 2.24 12.44 1.94C12.73 1.65 13.09 1.5 13.5 1.5C13.91 1.5 14.27 1.65 14.56 1.94C14.85 2.24 15 2.59 15 3V4ZM6 3V5.5C6 5.64 6.05 5.76 6.15 5.86C6.24 5.95 6.36 6 6.5 6C6.64 6 6.76 5.95 6.85 5.86C6.95 5.76 7 5.64 7 5.5V3C7 2.86 6.95 2.74 6.85 2.65C6.76 2.55 6.64 2.5 6.5 2.5C6.36 2.5 6.24 2.55 6.15 2.65C6.05 2.74 6 2.86 6 3ZM13 3V5.5C13 5.64 13.05 5.76 13.14 5.86C13.24 5.95 13.36 6 13.5 6C13.64 6 13.76 5.95 13.86 5.86C13.95 5.76 14 5.64 14 5.5V3C14 2.86 13.95 2.74 13.86 2.65C13.76 2.55 13.64 2.5 13.5 2.5C13.36 2.5 13.24 2.55 13.14 2.65C13.05 2.74 13 2.86 13 3ZM17 18V8H3V18H17ZM7 9V11H5V9H7ZM9 9H11V11H9V9ZM13 11V9H15V11H13ZM7 12V14H5V12H7ZM9 12H11V14H9V12ZM13 14V12H15V14H13ZM7 15V17H5V15H7ZM11 17H9V15H11V17ZM15 17H13V15H15V17Z" fill="white"/>
</svg>
