<svg width="20" height="20" viewBox="0 0 20 20" fill="none" xmlns="http://www.w3.org/2000/svg">
<path d="M2.00011 18.4301C3.51011 19.7901 13.6401 13.7601 15.1401 11.2201C15.8601 10.0001 15.0101 8.21008 13.6201 6.78008C15.2001 5.73008 16.5901 9.00008 17.9101 8.31008C18.5101 7.99008 18.9001 7.00008 18.6101 6.39008C18.0901 5.31008 16.3601 5.31008 15.1901 5.18008C16.0201 4.98008 18.0101 4.13008 18.0501 2.93008C18.0901 2.01008 16.9201 0.960076 16.0001 1.07008C14.7901 1.21008 14.3501 2.95008 13.9401 4.07008C13.8901 3.36008 13.7401 1.80008 12.9601 1.12008C11.9201 0.210076 10.6701 1.07008 10.6401 2.17008C10.6001 3.50008 13.4601 4.24008 12.5601 5.84008C11.0401 4.67008 9.25011 4.03008 8.10011 4.70008C7.61011 5.01008 7.05011 5.61008 6.47011 6.39008C7.36011 7.33008 8.59011 8.46008 9.56011 9.11007C9.76011 9.25007 9.82011 9.53007 9.67011 9.73007C9.53011 9.94007 9.25011 9.99008 9.05011 9.85008C8.06011 9.18008 6.85011 8.07008 5.95011 7.14008C5.50011 7.81008 5.04011 8.57008 4.61011 9.37008C5.46011 10.2301 6.54011 11.2001 7.40011 11.7801C7.60011 11.9201 7.65011 12.2001 7.51011 12.4001C7.37011 12.6101 7.09011 12.6601 6.88011 12.5201C6.03011 11.9401 5.02011 11.0401 4.17011 10.2001C2.40011 13.6901 1.10011 17.6301 2.00011 18.4301Z" fill="white"/>
</svg>
