<svg width="20" height="20" viewBox="0 0 20 20" fill="none" xmlns="http://www.w3.org/2000/svg">
<g clip-path="url(#clip0_263_11852)">
<path d="M11.9001 0.389912L13.3001 1.78991C14.9101 1.97991 16.8001 1.04991 17.9101 2.15991C19.0201 3.26991 18.0901 5.15991 18.2801 6.76991L19.6801 8.16991C20.0701 8.55991 20.0701 9.18991 19.6801 9.57991L10.4901 18.7799C10.0901 19.1699 9.46006 19.1699 9.07006 18.7799L1.29006 10.9999C0.900059 10.6099 0.900059 9.97991 1.29006 9.57991L10.4901 0.389912C10.8801 -8.7887e-05 11.5101 -8.7887e-05 11.9001 0.389912ZM12.4801 2.63991L11.9001 3.21991L16.8501 8.16991L17.4301 7.58991C17.2401 6.98991 17.2301 6.36991 17.2801 5.76991C17.3001 5.45991 17.3301 5.14991 17.3701 4.84991C17.4901 3.84991 17.5501 3.21991 17.2001 2.86991C16.8501 2.51991 16.2201 2.57991 15.2201 2.69991C14.9201 2.73991 14.6101 2.76991 14.3001 2.78991C13.7001 2.83991 13.0801 2.82991 12.4801 2.63991ZM16.5001 3.56991C16.8901 3.95991 16.8901 4.59991 16.5001 4.98991C16.1101 5.37991 15.4701 5.37991 15.0801 4.98991C14.6901 4.59991 14.6901 3.95991 15.0801 3.56991C15.4701 3.17991 16.1101 3.17991 16.5001 3.56991ZM9.78006 3.92991L9.07006 4.62991L15.4401 10.9999L16.1401 10.2899L9.78006 3.92991ZM8.36006 5.33991L7.66006 6.04991L14.0201 12.4099L14.7301 11.7099L8.36006 5.33991ZM6.95006 6.75991L6.24006 7.45991L12.6101 13.8299L13.3101 13.1199L6.95006 6.75991ZM5.54006 8.16991L4.83006 8.87991L11.1901 15.2399L11.9001 14.5299L5.54006 8.16991ZM4.12006 9.57991L3.41006 10.2899L9.78006 16.6599L10.4901 15.9499L4.12006 9.57991Z" fill="white"/>
</g>
<defs>
<clipPath id="clip0_263_11852">
<rect width="20" height="20" fill="white"/>
</clipPath>
</defs>
</svg>
