<svg width="20" height="20" viewBox="0 0 20 20" fill="none" xmlns="http://www.w3.org/2000/svg">
<path d="M6.09991 9.49989C6.09991 9.09989 6.09991 8.79989 6.09991 8.39989C6.09991 7.89989 5.89991 7.69989 5.39991 7.59989C5.99991 7.49989 6.19991 7.29989 6.19991 6.69989C6.19991 6.29989 6.19991 5.89989 6.19991 5.59989C6.19991 5.19989 6.29991 5.09989 6.89991 5.09989H7.19991V4.59989H6.59991C5.69991 4.59989 5.29991 4.79989 5.29991 5.59989C5.29991 6.09989 5.39991 6.39989 5.39991 6.79989C5.39991 6.99989 5.19991 7.29989 4.49991 7.29989V7.89989C5.19991 7.89989 5.39991 8.19989 5.39991 8.39989C5.39991 8.79989 5.29991 9.09989 5.29991 9.59989C5.29991 10.3999 5.69991 10.5999 6.59991 10.5999H7.09991V9.99989H6.79991C6.29991 9.99989 6.09991 9.89989 6.09991 9.49989ZM16.4999 13.8999C15.6999 13.0999 14.7999 12.4999 13.8999 11.8999C13.7999 11.7999 12.7999 10.7999 12.3999 10.4999C14.7999 6.49989 11.2999 1.29989 6.69991 1.99989C2.29991 2.69989 0.399915 8.19989 3.49991 11.3999C5.19991 13.2999 8.09991 13.6999 10.3999 12.4999C10.9999 13.0999 11.4999 13.5999 11.9999 14.1999C12.6999 15.0999 13.1999 15.9999 14.0999 16.6999C14.6999 17.1999 15.4999 17.8999 16.3999 17.9999C17.4999 18.0999 18.0999 17.3999 18.0999 16.3999C17.9999 15.4999 17.0999 14.4999 16.4999 13.8999ZM7.59991 11.5999C5.39991 11.5999 3.59991 9.79989 3.59991 7.59989C3.59991 5.39989 5.39991 3.59989 7.59991 3.59989C9.79991 3.59989 11.5999 5.39989 11.5999 7.59989C11.5999 9.79989 9.79991 11.5999 7.59991 11.5999ZM9.69991 6.79989C9.69991 6.39989 9.79991 6.09989 9.79991 5.59989C9.79991 4.79989 9.39991 4.59989 8.49991 4.59989H7.99991V5.09989H8.29991C8.79991 5.09989 8.99991 5.19989 8.99991 5.59989C8.99991 5.99989 8.99991 6.29989 8.99991 6.69989C8.99991 7.19989 9.19991 7.39989 9.69991 7.49989C9.09991 7.69989 8.89991 7.89989 8.89991 8.39989C8.89991 8.79989 8.89991 9.19989 8.89991 9.49989C8.99991 9.89989 8.79991 9.99989 8.29991 9.99989H7.99991V10.5999H8.49991C9.39991 10.5999 9.79991 10.3999 9.79991 9.59989C9.79991 9.09989 9.69991 8.79989 9.69991 8.39989C9.69991 8.19989 9.89992 7.89989 10.5999 7.89989V7.29989C9.89992 7.29989 9.69991 6.99989 9.69991 6.79989Z" fill="white"/>
</svg>
