<svg width="20" height="20" viewBox="0 0 20 20" fill="none" xmlns="http://www.w3.org/2000/svg">
<path d="M17.8 2.19995C16.8 1.19995 15.2 1.19995 14.2 2.19995L12.4 3.99995L11.7 3.29995C11.3 2.89995 10.7 2.89995 10.3 3.29995L9.5 3.99995C9.1 4.39995 9.1 4.99995 9.5 5.39995L14.5 10.4C14.9 10.8 15.5 10.8 15.9 10.4L16.6 9.69995C17 9.29995 17 8.69995 16.6 8.29995L16 7.59995L17.8 5.79995C18.8 4.79995 18.8 3.19995 17.8 2.19995ZM4.4 12C2.2 14.2 3.5 15.1999 1.5 17.7999L2.2 18.5C4.8 16.5 5.8 17.8 8 15.6L13.1 10.5L9.5 6.89995L4.4 12Z" fill="white"/>
</svg>
