<svg width="20" height="20" viewBox="0 0 20 20" fill="none" xmlns="http://www.w3.org/2000/svg">
<path d="M2 7H6L11 3V17L6 13H2V7ZM14.69 4.54C14.82 4.59 18 5.92 18 10C18 14.08 14.82 15.41 14.69 15.46C14.63 15.49 14.56 15.5 14.5 15.5C14.3 15.5 14.11 15.38 14.04 15.19C13.93 14.93 14.06 14.64 14.31 14.54C14.42 14.49 17 13.39 17 10C17 6.59 14.34 5.47 14.31 5.46C14.06 5.36 13.93 5.07 14.04 4.81C14.14 4.56 14.43 4.43 14.69 4.54ZM16 10C16 12.57 13.77 13.43 13.68 13.47C13.62 13.49 13.56 13.5 13.5 13.5C13.3 13.5 13.11 13.38 13.03 13.18C12.93 12.92 13.07 12.63 13.32 12.53C13.39 12.51 15 11.86 15 10C15 8.14 13.39 7.49 13.32 7.47C13.07 7.37 12.94 7.08 13.03 6.82C13.13 6.57 13.42 6.43 13.68 6.53C13.77 6.57 16 7.43 16 10Z" fill="white"/>
</svg>
