<svg width="20" height="20" viewBox="0 0 20 20" fill="none" xmlns="http://www.w3.org/2000/svg">
<path d="M3.76 16H16.24C17.34 14.63 18 12.89 18 11C18 6.58 14.42 3 10 3C5.58 3 2 6.58 2 11C2 12.89 2.66 14.63 3.76 16ZM10 4C10.55 4 11 4.45 11 5C11 5.55 10.55 6 10 6C9.45 6 9 5.55 9 5C9 4.45 9.45 4 10 4ZM6 6C6.55 6 7 6.45 7 7C7 7.55 6.55 8 6 8C5.45 8 5 7.55 5 7C5 6.45 5.45 6 6 6ZM14 6C14.55 6 15 6.45 15 7C15 7.55 14.55 8 14 8C13.45 8 13 7.55 13 7C13 6.45 13.45 6 14 6ZM8.63 11.55L12 7V13C12 14.1 11.1 15 10 15C8.9 15 8 14.1 8 13C8 12.43 8.24 11.92 8.63 11.55ZM4 10C4.55 10 5 10.45 5 11C5 11.55 4.55 12 4 12C3.45 12 3 11.55 3 11C3 10.45 3.45 10 4 10ZM16 10C16.55 10 17 10.45 17 11C17 11.55 16.55 12 16 12C15.45 12 15 11.55 15 11C15 10.45 15.45 10 16 10ZM11 13C11 12.45 10.55 12 10 12C9.45 12 9 12.45 9 13C9 13.55 9.45 14 10 14C10.55 14 11 13.55 11 13Z" fill="white"/>
</svg>
