<svg width="20" height="20" viewBox="0 0 20 20" fill="none" xmlns="http://www.w3.org/2000/svg">
<path d="M17.2 4.50008C16.8 3.80008 16.2 3.30008 15.6 2.90008C13 1.30008 9.69997 2.00008 8.09997 4.50008C7.59997 5.30008 7.29997 6.30008 7.29997 7.20008C7.29997 8.70008 6.69997 10.2001 5.69997 11.3001L4.89997 12.1001C4.39997 12.6001 2.99997 12.3001 2.39997 13.3001C1.29997 15.2001 3.09997 15.9001 3.59997 16.4001C4.09997 16.9001 4.79997 18.8001 6.69997 17.6001C7.59997 17.0001 7.29997 15.7001 7.89997 15.1001L8.69997 14.3001C9.79997 13.3001 11.3 12.7001 12.8 12.7001C13.1 12.7001 13.4 12.7001 13.6 12.6001C12.8 11.0001 13.4 9.10008 14.9 8.30008C15.8 7.80008 17 7.80008 17.9 8.30008C18.2 7.00008 17.9 5.60008 17.2 4.50008Z" fill="white"/>
</svg>
