<svg width="20" height="20" viewBox="0 0 20 20" fill="none" xmlns="http://www.w3.org/2000/svg">
<path d="M17.74 2.26C19.42 3.95 19.42 6.67 17.74 8.36L16.21 9.88C15.89 10.21 15.52 10.46 15.13 10.65L13 10L14.69 8.36L15.45 7.59L16.21 6.83C17.05 5.99 17.05 4.63 16.21 3.79C15.37 2.94 14.01 2.94 13.17 3.79L12.4 4.55L11.64 5.31L10 7L9.35 4.86C9.54 4.48 9.79 4.11 10.12 3.79L11.64 2.26C13.33 0.58 16.06 0.58 17.74 2.26ZM2 4L10 10L4 2L2 4ZM6 2L10 10L8 2H6ZM2 6L10 10L2 8V6ZM9.36 13.69L10 13L10.74 15.35L9.36 16.74C7.67 18.42 4.95 18.42 3.26 16.74C1.58 15.06 1.58 12.32 3.26 10.64L4.65 9.26L7 10L6.31 10.64L4.79 12.17C3.94 13.01 3.94 14.37 4.79 15.21C5.63 16.06 6.99 16.06 7.83 15.21L9.36 13.69ZM18 16L10 10L16 18L18 16ZM14 18L10 10L12 18H14ZM18 14L10 10L18 12V14Z" fill="white"/>
</svg>
