<svg width="20" height="20" viewBox="0 0 20 20" fill="none" xmlns="http://www.w3.org/2000/svg">
<path d="M15.84 2.75992C16.09 2.75992 16.33 2.79992 16.55 2.86992C16.78 2.93992 16.99 3.02992 17.19 3.11992L17.54 2.30992C17.02 2.04992 16.46 1.91992 15.85 1.91992C15.27 1.91992 14.76 2.04992 14.33 2.28992C13.9 2.53992 13.57 2.89992 13.34 3.36992C13.11 3.82992 13 4.37992 13 4.99992C13 5.98992 13.23 6.74992 13.7 7.27992C14.17 7.80992 14.85 8.06992 15.72 8.06992C16.32 8.06992 16.85 7.97992 17.32 7.80992V6.96992C17.06 7.04992 16.81 7.10992 16.58 7.15992C16.34 7.20992 16.09 7.23992 15.84 7.23992C15.25 7.23992 14.8 7.04992 14.5 6.66992C14.18 6.29992 14.03 5.73992 14.03 5.00992C14.03 4.30992 14.19 3.75992 14.51 3.35992C14.84 2.95992 15.28 2.75992 15.84 2.75992ZM6.5 7.99992H7.54L5.3 1.99992H4.24L2 7.99992H3.03L3.61 6.33992H5.9L6.5 7.99992ZM8 1.99992V7.99992H10.17C10.84 7.99992 11.36 7.84992 11.74 7.53992C12.12 7.23992 12.3 6.81992 12.3 6.27992C12.3 5.87992 12.2 5.55992 12 5.32992C11.81 5.08992 11.5 4.93992 11.07 4.85992V4.81992C11.42 4.75992 11.67 4.60992 11.85 4.37992C12.03 4.13992 12.13 3.84992 12.13 3.49992C12.13 2.97992 11.94 2.59992 11.57 2.35992C11.21 2.11992 10.61 1.99992 9.78 1.99992H8ZM8.98 4.47992V2.81992H9.83C10.27 2.81992 10.6 2.87992 10.8 3.00992C11.01 3.12992 11.11 3.33992 11.11 3.61992C11.11 3.92992 11.01 4.14992 10.82 4.27992C10.64 4.40992 10.34 4.47992 9.93 4.47992H8.98ZM5.64 5.49992H3.9L4.44 3.93992C4.58 3.53992 4.69 3.17992 4.76 2.83992L4.91 3.35992C4.98 3.58992 5.04 3.75992 5.08 3.86992L5.64 5.49992ZM8.98 5.26992H9.97C10.41 5.26992 10.73 5.34992 10.95 5.49992C11.16 5.64992 11.27 5.87992 11.27 6.18992C11.27 6.52992 11.16 6.77992 10.95 6.93992C10.74 7.09992 10.43 7.17992 10.02 7.17992H8.98V5.26992ZM4 12.9999L9 17.9999L18 9.99992L17 8.99992L9 14.9999L5 11.9999L4 12.9999Z" fill="white"/>
</svg>
