<svg width="20" height="20" viewBox="0 0 20 20" fill="none" xmlns="http://www.w3.org/2000/svg">
<path d="M15.82 12.25C16.08 12.25 16.32 12.23 16.56 12.18C16.79 12.13 17.04 12.06 17.29 11.98V12.82C16.83 12.99 16.3 13.08 15.71 13.08C14.83 13.08 14.17 12.82 13.7 12.29C13.31 11.85 13.08 11.25 13.02 10.5H12.08C12.2 10.71 12.26 10.98 12.26 11.29C12.26 11.83 12.08 12.24 11.71 12.55C11.33 12.85 10.81 13 10.15 13H8V10.5H6.59L7.52 13H6.49L5.9 11.33H3.62L3.04 13H2L2.93 10.5H2V9.49997H3.31L4.24 7.00997H5.3L6.22 9.49997H8V6.99997H9.77C10.77 6.99997 11.18 7.16997 11.54 7.40997C11.91 7.64997 12.09 8.02997 12.09 8.53997C12.09 8.88997 12 9.17997 11.82 9.40997L11.74 9.49997H13.03C13.08 9.09997 13.18 8.72997 13.34 8.39997C13.57 7.93997 13.89 7.57997 14.32 7.33997C14.75 7.08997 15.25 6.96997 15.83 6.96997C16.44 6.96997 17 7.08997 17.52 7.34997L17.17 8.15997C16.97 8.05997 16.75 7.97997 16.53 7.90997C16.31 7.83997 16.07 7.79997 15.82 7.79997C15.27 7.79997 14.83 7.99997 14.51 8.38997C14.28 8.67997 14.13 9.04997 14.07 9.49997H17V10.5H14.05C14.11 11 14.25 11.4 14.49 11.69C14.79 12.06 15.24 12.25 15.82 12.25ZM4.44 8.95997L4.26 9.49997H5.3L5.08 8.88997C5.04 8.77997 4.99 8.60997 4.91 8.37997C4.84 8.13997 4.79 7.96997 4.77 7.86997C4.69 8.19997 4.59 8.55997 4.44 8.95997ZM8.97 7.86997V9.49997H10.16C10.44 9.47997 10.65 9.40997 10.8 9.31997C10.99 9.18997 11.08 8.96997 11.08 8.65997C11.08 8.37997 10.98 8.17997 10.78 8.04997C10.58 7.92997 10.25 7.86997 9.81 7.86997H8.97ZM5.64 10.51V10.5H3.91V10.51H5.64ZM10.92 10.52L10.89 10.5H8.97V12.18H10.01C10.41 12.18 10.72 12.1 10.93 11.95C11.14 11.79 11.24 11.55 11.24 11.21C11.24 10.9 11.13 10.67 10.92 10.52Z" fill="white"/>
</svg>
