<svg width="20" height="20" viewBox="0 0 20 20" fill="none" xmlns="http://www.w3.org/2000/svg">
<path d="M14.29 4.58988L15.39 5.69988C15.8 6.09988 16 6.63988 16 7.16988V9.28988C16 9.81988 15.8 10.3599 15.39 10.7599L8.76 17.3899C8.36 17.7999 7.82 17.9999 7.29 17.9999C6.76 17.9999 6.22 17.7999 5.82 17.3899L4.71 16.2899L3.61 15.1799C3.2 14.7799 3 14.2399 3 13.7099V11.5899C3 11.0499 3.2 10.5199 3.61 10.1099L10.24 3.48988C10.64 3.07988 11.18 2.87988 11.71 2.87988C12.24 2.87988 12.77 3.07988 13.18 3.48988L14.29 4.58988ZM8.08 14.2899L14.5 7.86988C14.89 7.47988 14.89 6.83988 14.5 6.43988L12.36 4.29988C12.17 4.10988 11.91 4.00988 11.64 4.00988C11.37 4.00988 11.12 4.10988 10.93 4.29988L4.51 10.7199C4.12 11.1199 4.12 11.7599 4.51 12.1499L6.65 14.2899C7.03 14.6699 7.69 14.6699 8.08 14.2899Z" fill="white"/>
</svg>
