<svg width="20" height="20" viewBox="0 0 20 20" fill="none" xmlns="http://www.w3.org/2000/svg">
<path d="M10 5.40004C11.27 5.40004 12.24 5.76004 12.91 6.48004C13.57 7.19004 13.91 8.24004 13.91 9.61004C13.91 10.89 13.68 11.98 13.22 12.88C12.75 13.77 11.95 14.4 11 15V17H17V15H13.31C14.23 14.36 14.93 13.66 15.43 12.66C15.92 11.65 16.17 10.53 16.17 9.31004C16.17 7.53004 15.62 6.12004 14.52 5.09004C13.42 4.06004 11.92 3.54004 10 3.54004C8.08 3.54004 6.57 4.07004 5.48 5.11004C4.38 6.15004 3.83 7.55004 3.83 9.31004C3.83 10.52 4.07 11.62 4.56 12.64C5.04 13.65 5.75 14.35 6.66 15H3V17H9V15C8.02 14.36 7.2 13.72 6.76 12.83C6.31 11.94 6.09 10.87 6.09 9.61004C6.09 8.24004 6.42 7.20004 7.09 6.48004C7.75 5.76004 8.72 5.40004 10 5.40004Z" fill="white"/>
</svg>
