<svg width="20" height="20" viewBox="0 0 20 20" fill="none" xmlns="http://www.w3.org/2000/svg">
<path d="M9.49007 13.22C9.49007 12.48 9.29007 11.84 8.88007 11.32C8.26007 10.54 7.05007 10.44 6.35007 10.6C6.06007 8.95 7.46007 6.85 9.27007 5.95L7.88007 4C5.15007 5.3 2.46007 8.28 2.92007 12.05C3.21007 14.43 4.59007 16 6.54007 16C7.39007 16 8.10007 15.75 8.66007 15.25C9.22007 14.75 9.49007 14.07 9.49007 13.22ZM17.5401 13.22C17.5401 12.48 17.3401 11.84 16.9301 11.32C16.3001 10.54 15.1001 10.44 14.4001 10.6C14.1101 8.95 15.5101 6.85 17.3201 5.95L15.9301 4C13.2001 5.3 10.5201 8.28 10.9801 12.05C11.2701 14.43 12.6401 16 14.5901 16C15.4401 16 16.1501 15.75 16.7101 15.25C17.2701 14.75 17.5401 14.07 17.5401 13.22Z" fill="white"/>
</svg>
