<svg width="24" height="24" viewBox="0 0 24 24" fill="none" xmlns="http://www.w3.org/2000/svg">
<path d="M19.0229 3.8905V2.5263C19.0229 2.02104 18.6187 1.64209 18.1387 1.64209H0.884199C0.378943 1.64209 0 2.0463 0 2.5263V3.8905L9.49883 7.90733L19.0229 3.8905Z" fill="#2271B1"/>
<path d="M18.7198 10.0042C18.8208 10.0042 18.9219 10.0042 19.0229 10.0042V5.83576L9.85251 9.70101C9.72619 9.75154 9.62514 9.7768 9.49883 9.7768C9.37251 9.7768 9.2462 9.75154 9.14515 9.70101L0 5.83576V13.9199C0 14.3999 0.404205 14.8042 0.884199 14.8042H11.9998C12.9598 12.0252 15.6124 10.0042 18.7198 10.0042Z" fill="#2271B1"/>
<path d="M18.7196 11.7978C15.8144 11.7978 13.4397 14.1725 13.4397 17.0778C13.4144 20.0083 15.7891 22.3578 18.7196 22.3578C21.6248 22.3578 23.9995 19.9831 23.9995 17.0778C23.9995 14.1725 21.6248 11.7978 18.7196 11.7978ZM20.8669 18.1641C21.1701 18.4673 21.1701 18.9473 20.8669 19.2504C20.7153 19.402 20.5132 19.4778 20.3364 19.4778C20.1596 19.4778 19.9575 19.402 19.8059 19.2504L18.7196 18.1641L17.6333 19.2504C17.4817 19.402 17.2796 19.4778 17.1028 19.4778C16.9259 19.4778 16.7238 19.402 16.5722 19.2504C16.2691 18.9473 16.2691 18.4673 16.5722 18.1641L17.6585 17.0778L16.547 15.9915C16.2438 15.6883 16.2438 15.2083 16.547 14.9052C16.8501 14.602 17.3301 14.602 17.6333 14.9052L18.7196 15.9915L19.8059 14.9052C20.109 14.602 20.589 14.602 20.8922 14.9052C21.1953 15.2083 21.1953 15.6883 20.8922 15.9915L19.8059 17.0778L20.8669 18.1641Z" fill="#2271B1"/>
</svg>
