<svg width="20" height="20" viewBox="0 0 20 20" fill="none" xmlns="http://www.w3.org/2000/svg">
<path d="M6.99 3.08007L18.01 1.08007C18.56 1.00007 19 1.53007 19 2.08007V14.5001C19 16.4401 17.43 18.0001 15.5 18.0001C13.57 18.0001 12 16.4401 12 14.5001C12 12.5701 13.57 11.0001 15.5 11.0001C16.04 11.0001 16.54 11.1401 17 11.3501V5.08007L8 7.08007V16.0001C7.76 17.7001 6.26 19.0001 4.5 19.0001C2.57 19.0001 1 17.4401 1 15.5001C1 13.5701 2.57 12.0001 4.5 12.0001C5.04 12.0001 5.54 12.1401 6 12.3501V4.08007C6 3.53007 6.44 3.17007 6.99 3.08007Z" fill="white"/>
</svg>
