<svg width="20" height="20" viewBox="0 0 20 20" fill="none" xmlns="http://www.w3.org/2000/svg">
<path d="M15.9001 5.5C15.3001 4.5 14.2001 4 13.0001 4H7.00009C5.80009 4 4.70009 4.5 4.10009 5.5C1.80009 9 1.30009 14.3 2.90009 15.4C4.50009 16.5 8.10009 11.7 10.0001 11.7C11.9001 11.7 15.4001 16.5 17.1001 15.4C18.7001 14.3 18.2001 9 15.9001 5.5ZM8.00009 9H7.00009V10H6.00009V9H5.00009V8H6.00009V7H7.00009V8H8.00009V9ZM13.4001 9.5C13.4001 10 13.0001 10.4 12.5001 10.4C12.0001 10.4 11.6001 10 11.6001 9.5C11.6001 9 12.0001 8.6 12.5001 8.6C13.0001 8.6 13.4001 9 13.4001 9.5ZM15.3001 7.5C15.3001 8 14.9001 8.4 14.4001 8.4C13.9001 8.4 13.5001 8 13.5001 7.5C13.5001 7 13.9001 6.6 14.4001 6.6C14.9001 6.6 15.3001 7 15.3001 7.5Z" fill="white"/>
</svg>
