<svg width="20" height="20" viewBox="0 0 20 20" fill="none" xmlns="http://www.w3.org/2000/svg">
<path fill-rule="evenodd" clip-rule="evenodd" d="M17.6002 8.5H10.1002V11.5H14.5002C14.1002 13.6 12.2002 15 10.1002 14.9C7.5002 14.8 5.5002 12.8 5.4002 10.2C5.3002 7.5 7.4002 5.2 10.1002 5.1C11.2002 5.1 12.3002 5.5 13.2002 6.3L15.5002 4.1C14.1002 2.7 12.1002 2 10.2002 2C5.8002 2 2.2002 5.6 2.2002 10C2.2002 14.4 5.8002 18 10.2002 18C14.8002 18 17.9002 14.8 17.9002 10.2C17.8002 9.6 17.8002 9.1 17.6002 8.5Z" fill="white"/>
</svg>
