<svg width="20" height="20" viewBox="0 0 20 20" fill="none" xmlns="http://www.w3.org/2000/svg">
<path d="M8.0299 4.46008C7.7399 5.74008 8.5799 7.92008 9.9999 7.92008C11.4099 7.92008 12.2499 5.74008 11.9599 4.46008C11.7399 3.48008 10.8799 2.83008 9.9999 2.83008C9.1099 2.83008 8.2599 3.48008 8.0299 4.46008ZM3.8999 5.36008C3.6499 6.44008 4.3699 8.29008 5.5699 8.29008C6.7699 8.29008 7.4899 6.44008 7.2399 5.36008C7.0499 4.53008 6.3199 3.97008 5.5699 3.97008C4.8199 3.97008 4.0899 4.53008 3.8999 5.36008ZM12.7599 5.36008C12.5099 6.44008 13.2299 8.29008 14.4199 8.29008C15.6199 8.29008 16.3399 6.44008 16.0899 5.36008C15.8999 4.53008 15.1699 3.97008 14.4199 3.97008C13.6799 3.97008 12.9499 4.53008 12.7599 5.36008ZM12.1699 16.7901L13.4199 12.4901C14.1999 10.0001 12.7099 8.47008 9.9999 8.47008C7.2799 8.47008 5.7899 10.0001 6.5599 12.4901L7.8199 16.7901C8.0499 17.5101 8.9999 18.0001 9.9999 18.0001C10.9799 18.0001 11.9399 17.5101 12.1699 16.7901ZM6.0699 9.16008C5.5799 9.83008 5.1099 10.9901 5.6499 12.7501L6.7699 16.5401C6.4299 16.7401 5.9999 16.8501 5.5699 16.8501C4.7199 16.8501 3.9199 16.4401 3.7199 15.8201L2.6499 12.1701C1.9999 10.0601 3.2599 8.77008 5.5699 8.77008C5.8399 8.77008 6.1099 8.79008 6.3599 8.83008C6.2599 8.93008 6.1599 9.05008 6.0699 9.16008ZM14.4199 8.77008C16.7299 8.77008 17.9999 10.0601 17.3399 12.1701L16.2699 15.8201C16.0699 16.4401 15.2699 16.8501 14.4199 16.8501C13.9899 16.8501 13.5599 16.7401 13.2199 16.5401L14.3299 12.7701C14.8799 10.9901 14.4099 9.83008 13.9099 9.16008C13.8299 9.05008 13.7299 8.93008 13.6299 8.83008C13.8799 8.79008 14.1399 8.77008 14.4199 8.77008Z" fill="white"/>
</svg>
