<svg width="20" height="20" viewBox="0 0 20 20" fill="none" xmlns="http://www.w3.org/2000/svg">
<path d="M4 16V14H2V16H1V11H2V13H4V11H5V16H4Z" fill="white"/>
<path d="M7.0001 16V12H5.6001V11H9.3001V12H8.0001V16H7.0001Z" fill="white"/>
<path d="M10 16V11H11L12.4 14.4H12.5L14 11H15V16H14V12.9H13.9L12.8 15.4H12.2L11.1 12.9H11V16H10Z" fill="white"/>
<path d="M19 16H16V11H17V15H19V16Z" fill="white"/>
<path d="M9.40005 4.2L7.10005 6.5L9.40005 8.8L8.80005 10L5.30005 6.5L8.80005 3L9.40005 4.2ZM10.6 8.8L12.9 6.5L10.6 4.2L11.2 3L14.7 6.5L11.2 10L10.6 8.8Z" fill="white"/>
</svg>
