<svg width="20" height="20" viewBox="0 0 20 20" fill="none" xmlns="http://www.w3.org/2000/svg">
<path d="M13.9999 5.87012C13.9999 3.67012 12.2099 1.87012 9.99988 1.87012C7.78988 1.87012 5.99988 3.67012 5.99988 5.87012C5.99988 8.08012 7.78988 9.87012 9.99988 9.87012C12.2099 9.87012 13.9999 8.08012 13.9999 5.87012ZM3.23988 10.6601C1.31988 11.7601 0.66988 14.2101 1.76988 16.1201C2.87988 18.0401 5.31988 18.6901 7.23988 17.5901C9.14988 16.4801 9.80988 14.0401 8.69988 12.1201C7.59988 10.2101 5.14988 9.56012 3.23988 10.6601ZM12.7599 17.5901C14.6799 18.6901 17.1199 18.0401 18.2299 16.1301C19.3299 14.2101 18.6799 11.7701 16.7599 10.6601C14.8499 9.56012 12.3999 10.2101 11.2999 12.1201C10.1899 14.0401 10.8499 16.4801 12.7599 17.5901Z" fill="white"/>
</svg>
