<svg width="20" height="20" viewBox="0 0 20 20" fill="none" xmlns="http://www.w3.org/2000/svg">
<path d="M9.99988 1C13.1099 1 15.6299 3.52 15.6299 6.62C15.6299 8.46 13.5999 11.2 13.5999 11.2C13.2699 11.64 12.9999 12.45 12.9999 13V14C12.9999 14.55 12.5499 15 11.9999 15H7.99988C7.44988 15 6.99988 14.55 6.99988 14V13C6.99988 12.45 6.72988 11.64 6.39988 11.2C6.39988 11.2 4.37988 8.46 4.37988 6.62C4.37988 3.52 6.88988 1 9.99988 1ZM6.99988 16.87V16H12.9999V16.87C12.9999 17.49 12.8699 18 12.2499 18H11.9999C11.9999 18.62 11.5999 19 10.9799 19H8.97988C8.36988 19 7.99988 18.62 7.99988 18H7.74988C7.12988 18 6.99988 17.49 6.99988 16.87Z" fill="white"/>
</svg>
