<svg width="20" height="20" viewBox="0 0 20 20" fill="none" xmlns="http://www.w3.org/2000/svg">
<path d="M18.15 5.93993C18.61 7.55993 18.53 9.15993 18.13 10.4199C17.71 11.6999 16.87 12.5999 15.83 12.8999C15.67 12.9599 15.57 12.9599 15.43 12.9599C15.37 12.9799 15.31 12.9799 15.25 12.9799C15.19 12.9999 15.11 12.9999 15.03 12.9999H8.22999L10.45 18.4999C10.47 18.6399 10.39 18.7599 10.31 18.8399C10.23 18.9399 10.07 18.9999 9.96999 18.9999H6.94999C6.84999 18.9999 6.68999 18.9399 6.60999 18.8399C6.52999 18.7599 6.44999 18.6399 6.46999 18.4999L5.46999 12.9999H4.24999L4.22999 12.9799C3.72999 13.0399 3.14999 12.7999 2.68999 12.3599C2.22999 11.9199 1.80999 11.2799 1.62999 10.4799C1.38999 9.67993 1.42999 8.91993 1.60999 8.27993C1.78999 7.65993 2.18999 7.19993 2.66999 6.97993L2.68999 6.95993L11.69 1.55993C11.79 1.49993 11.87 1.45993 11.93 1.39993C11.99 1.35993 12.07 1.31993 12.17 1.27993C12.33 1.19993 12.45 1.15993 12.67 1.09993C13.71 0.799931 14.91 1.19993 15.89 2.07993C16.87 2.95993 17.73 4.31993 18.15 5.93993ZM15.57 11.9199H15.55C15.95 11.8199 16.29 11.5799 16.59 11.2199C17.17 10.5199 17.45 9.45993 17.45 8.17993C17.45 7.53993 17.35 6.87993 17.17 6.19993C16.83 4.83993 16.15 3.69993 15.39 2.95993C14.63 2.21993 13.71 1.85993 12.93 2.07993C12.11 2.29993 11.53 3.03993 11.23 4.07993C10.91 5.11993 10.95 6.43993 11.29 7.79993C11.67 9.15993 12.29 10.2999 13.09 11.0399C13.87 11.7799 14.71 12.1399 15.57 11.9199ZM13.03 4.83993C13.25 4.79993 13.45 4.81993 13.65 4.87993C14.03 5.03993 14.41 5.35993 14.67 5.87993C14.93 6.39993 15.09 7.07993 15.09 7.65993C15.09 7.95993 15.05 8.21993 14.97 8.45993C14.79 8.93993 14.53 9.29993 14.11 9.39993C13.77 9.49993 13.31 9.33993 12.97 8.99993C12.63 8.65993 12.33 8.13993 12.19 7.49993C12.01 6.87993 12.07 6.25993 12.21 5.77993C12.35 5.29993 12.69 4.93993 13.03 4.83993Z" fill="white"/>
</svg>
