<svg width="20" height="20" viewBox="0 0 20 20" fill="none" xmlns="http://www.w3.org/2000/svg">
<path d="M8.58 2.38989C8.9 2.38989 9.17 2.43989 9.39 2.52989C10.64 3.07989 11.08 4.76989 11.09 6.49989C11.68 5.67989 13.24 4.20989 14.5 4.20989C15.76 4.20989 17.44 4.93989 18.03 7.75989C16.9 7.10989 15.61 6.81989 14.38 6.81989C13.12 6.81989 11.93 7.13989 11.09 7.70989C11.49 7.59989 11.95 7.54989 12.42 7.54989C13.81 7.54989 15.32 7.99989 15.82 8.85989C16.5 10.0199 16.29 12.2399 15.06 12.9999C14.92 10.8999 13.37 8.87989 11.59 8.87989C11.15 8.87989 10.71 8.99989 10.26 9.25989C8 10.6199 7 14.5599 7 18.9999H2C2 13.4699 6.21 9.34989 9.68 8.20989C9.12 8.11989 8.51 8.05989 7.86 8.05989C6.1 8.05989 4.05 8.49989 2 9.99989C2.76 7.03989 4.78 5.89989 6.69 5.89989C7.94 5.89989 9.14 6.39989 9.89 7.18989C9.23 4.94989 7.4 4.32989 5.81 4.32989C5.01 4.32989 4.26 4.48989 3.76 4.67989C4.67 3.38989 7.07 2.38989 8.58 2.38989ZM13 11.4999C13 10.6699 12.33 9.99989 11.5 9.99989C10.67 9.99989 10 10.6699 10 11.4999C10 12.3299 10.67 12.9999 11.5 12.9999C12.33 12.9999 13 12.3299 13 11.4999Z" fill="white"/>
</svg>
