<svg width="20" height="20" viewBox="0 0 20 20" fill="none" xmlns="http://www.w3.org/2000/svg">
<path d="M17.0499 2.69991C18.9799 4.63991 18.9799 7.82991 17.0499 9.76991L9.99994 16.8399C8.11994 18.7299 5.08994 18.7699 3.13994 16.9899C3.07994 16.9399 3.00994 16.8999 2.94994 16.8399C1.01994 14.8999 1.01994 11.7199 2.94994 9.76991L7.88994 4.81991C8.79994 3.89991 10.1699 3.71991 11.2799 4.23991C11.5799 4.38991 11.8699 4.56991 12.1099 4.81991C13.2799 5.98991 13.2799 7.88991 12.1099 9.05991L7.17994 14.0099C6.78994 14.3999 6.15994 14.3999 5.76994 14.0099C5.37994 13.6199 5.37994 12.9899 5.76994 12.5999L10.6999 7.64991C11.0899 7.25991 11.0899 6.62991 10.6999 6.23991C10.3199 5.84991 9.67994 5.84991 9.29994 6.23991L4.35994 11.1899C3.44994 12.1099 3.25994 13.4799 3.78994 14.5899C3.92994 14.8899 4.10994 15.1799 4.35994 15.4299C4.60994 15.6799 4.89994 15.8599 5.19994 15.9999C6.30994 16.5299 7.66994 16.3499 8.58994 15.4299L15.6399 8.35991C16.7999 7.18991 16.7999 5.27991 15.6399 4.10991C15.0799 3.55991 14.3599 3.27991 13.6399 3.24991C13.5599 3.25991 13.4799 3.25991 13.3999 3.24991C13.1799 3.21991 12.9699 3.13991 12.7999 2.97991C12.4099 2.57991 12.4199 1.92991 12.8199 1.52991C12.9799 1.36991 13.1799 1.28991 13.3799 1.24991C13.5199 1.22991 13.6499 1.23991 13.7799 1.26991C14.9699 1.32991 16.1399 1.78991 17.0499 2.69991Z" fill="white"/>
</svg>
