<svg width="20" height="20" viewBox="0 0 20 20" fill="none" xmlns="http://www.w3.org/2000/svg">
<g clip-path="url(#clip0_263_12181)">
<path d="M13.6001 5.09997L10.5001 8.19997L12.3001 9.99997L15.4001 6.89997C15.7001 6.59997 15.6001 5.89997 15.1001 5.39997C14.6001 4.89997 14.0001 4.79997 13.6001 5.09997ZM13.9001 0.299974C13.2001 -0.100026 4.10006 7.59997 4.10006 7.59997C4.10006 7.59997 0.60006 5.49997 0.10006 5.89997C-0.39994 6.29997 4.10006 10.9 4.10006 10.9C4.10006 10.9 14.6001 0.599974 13.9001 0.299974ZM19.4001 9.59997C18.9001 9.09997 18.2001 8.99997 17.9001 9.29997L14.8001 12.4L16.6001 14.2L19.7001 11C20.0001 10.8 19.9001 10.1 19.4001 9.59997ZM7.70006 8.59997C7.00006 9.29997 6.60006 11.3 6.60006 12.4V16.2L5.40006 17.4C4.80006 18 4.80006 18.9 5.40006 19.5C6.00006 20.1 6.90006 20.1 7.50006 19.5L8.70006 18.3H12.5001C13.7001 18.3 15.5001 17.9 16.2001 17.2L17.4001 16.4L8.50006 7.49997L7.70006 8.59997Z" fill="white"/>
</g>
<defs>
<clipPath id="clip0_263_12181">
<rect width="20" height="20" fill="white"/>
</clipPath>
</defs>
</svg>
