<svg width="20" height="20" viewBox="0 0 20 20" fill="none" xmlns="http://www.w3.org/2000/svg">
<path d="M13.1999 13.7999L9.0999 9.69988C8.8999 9.49988 8.6999 9.19988 8.6999 8.79988C8.6999 8.09988 9.2999 7.49988 9.9999 7.49988C10.0999 7.49988 10.2999 7.49988 10.3999 7.59988C11.0999 7.79988 11.4999 8.49988 11.2999 9.19988C11.1999 9.69988 11.3999 10.1999 11.8999 10.2999C12.3999 10.3999 12.8999 10.1999 12.9999 9.69988C13.0999 9.39988 13.0999 9.09988 13.0999 8.79988C13.0999 7.09988 11.6999 5.69988 9.9999 5.69988C9.1999 5.69988 8.3999 5.99988 7.7999 6.59988C6.5999 7.79988 6.5999 9.79988 7.7999 10.9999L11.8999 15.0999C12.2999 15.4999 12.7999 15.4999 13.1999 15.0999C13.5999 14.7999 13.5999 14.1999 13.1999 13.7999ZM14.8999 3.99988C12.1999 1.39988 7.9999 1.29988 5.2999 3.99988C2.5999 6.69988 2.5999 10.9999 5.2999 13.5999L9.3999 17.6999C9.7999 18.0999 10.2999 18.0999 10.6999 17.6999C11.0999 17.2999 11.0999 16.7999 10.6999 16.3999L6.5999 12.2999C4.6999 10.3999 4.6999 7.19988 6.5999 5.29988C8.4999 3.39988 11.6999 3.39988 13.5999 5.29988C15.1999 6.99988 15.3999 9.69988 14.0999 11.5999C13.7999 11.9999 13.9999 12.5999 14.3999 12.8999C14.7999 13.1999 15.3999 12.9999 15.6999 12.5999C17.3999 9.89988 17.0999 6.29988 14.8999 3.99988Z" fill="white"/>
</svg>
