<svg width="20" height="20" viewBox="0 0 20 20" fill="none" xmlns="http://www.w3.org/2000/svg">
<path d="M14.76 1C16.55 1 18 2.46 18 4.25C18 6.03 16.55 7.49 14.76 7.49C14.53 7.49 14.29 7.46 14.06 7.41L13 8.47V19H2V4H11.54C11.67 2 13.06 1 14.76 1ZM14.76 6.49C16 6.49 17 5.48 17 4.25C17 3.01 16 2 14.76 2C13.52 2 12.52 3.01 12.52 4.25C12.52 4.62 12.62 4.97 12.79 5.28L9.57 8.5C9.29 8.78 7.8 10.72 8.07 10.99C8.09 11.02 8.13 11.03 8.17 11.03C8.66 11.03 10.31 9.75 10.56 9.5L13.8 6.26C14.09 6.4 14.41 6.49 14.76 6.49Z" fill="white"/>
</svg>
