<svg width="20" height="20" viewBox="0 0 20 20" fill="none" xmlns="http://www.w3.org/2000/svg">
<path d="M18.0001 10.0999C18.0001 9.0999 17.2001 8.2999 16.2001 8.3999C15.8001 8.3999 15.3001 8.5999 15.0001 8.8999C13.6001 7.9999 12.0001 7.3999 10.3001 7.3999L11.1001 3.5999L13.7001 4.1999C13.7001 4.8999 14.3001 5.3999 15.0001 5.3999C15.7001 5.3999 16.2001 4.7999 16.2001 4.0999C16.2001 3.3999 15.6001 2.8999 14.9001 2.8999C14.4001 2.8999 14.0001 3.1999 13.8001 3.5999L11.0001 2.8999C10.9001 2.8999 10.8001 2.8999 10.8001 2.8999C10.7001 2.8999 10.7001 2.9999 10.7001 3.0999L9.7001 7.3999C8.0001 7.3999 6.4001 7.8999 5.0001 8.8999C4.3001 8.1999 3.2001 8.1999 2.5001 8.8999C1.8001 9.5999 1.8001 10.6999 2.5001 11.3999C2.6001 11.4999 2.8001 11.6999 3.0001 11.6999C3.0001 11.8999 3.0001 12.0999 3.0001 12.1999C3.0001 14.8999 6.1001 17.0999 10.0001 17.0999C13.9001 17.0999 17.0001 14.8999 17.0001 12.1999C17.0001 11.9999 17.0001 11.7999 17.0001 11.6999C17.6001 11.3999 18.0001 10.7999 18.0001 10.0999ZM6.0001 11.3999C6.0001 10.6999 6.6001 10.1999 7.2001 10.1999C7.9001 10.1999 8.4001 10.7999 8.4001 11.3999C8.4001 11.9999 7.8001 12.5999 7.2001 12.5999C6.5001 12.5999 6.0001 12.0999 6.0001 11.3999ZM13.0001 14.6999C12.1001 15.2999 11.1001 15.6999 10.0001 15.5999C8.9001 15.5999 7.9001 15.2999 7.0001 14.6999C6.9001 14.5999 6.9001 14.3999 7.0001 14.1999C7.1001 14.0999 7.3001 14.0999 7.4001 14.1999C8.1001 14.6999 9.0001 14.9999 9.9001 14.8999C10.8001 14.9999 11.7001 14.6999 12.4001 14.1999C12.5001 14.0999 12.7001 14.0999 12.9001 14.1999C13.1001 14.2999 13.1001 14.4999 13.0001 14.6999ZM12.7001 12.5999C12.0001 12.5999 11.5001 11.9999 11.5001 11.3999C11.5001 10.7999 12.1001 10.1999 12.7001 10.1999C13.4001 10.1999 13.9001 10.7999 13.9001 11.3999C14.0001 12.0999 13.4001 12.5999 12.7001 12.5999Z" fill="white"/>
</svg>
