<svg width="20" height="20" viewBox="0 0 20 20" fill="none" xmlns="http://www.w3.org/2000/svg">
<path d="M12.1399 4.17988C14.0099 6.04988 14.2499 8.92988 12.8599 11.0699C12.9799 11.1699 13.0799 11.2799 13.2199 11.3799C13.4199 11.5399 13.6899 11.7399 14.0299 11.9699C14.3699 12.2099 14.5899 12.3599 14.6899 12.4399C15.1099 12.7499 15.4199 13.0099 15.6299 13.2199C15.9499 13.5399 16.2299 13.8699 16.4699 14.2199C16.7199 14.5699 16.9099 14.9099 17.0599 15.2599C17.1999 15.6099 17.2699 15.9399 17.2399 16.2599C17.2199 16.5799 17.0999 16.8499 16.8799 17.0699C16.6599 17.2899 16.3899 17.4099 16.0699 17.4299C15.7599 17.4499 15.4199 17.3899 15.0799 17.2399C14.7299 17.0999 14.3799 16.8999 14.0399 16.6499C13.6899 16.4099 13.3599 16.1299 13.0399 15.8099C12.8299 15.5999 12.5699 15.2899 12.2699 14.8799C12.1699 14.7499 12.0199 14.5299 11.7999 14.2199C11.5799 13.8999 11.3999 13.6499 11.2399 13.4399C11.0799 13.2399 10.9499 13.0899 10.7999 12.9399C8.72988 14.0299 6.10988 13.6999 4.35988 11.9599C2.21988 9.80988 2.21988 6.31988 4.35988 4.17988C6.50988 2.02988 9.98988 2.02988 12.1399 4.17988ZM10.7299 10.5399C12.0899 9.16988 12.0899 6.95988 10.7299 5.58988C9.35988 4.21988 7.13988 4.21988 5.77988 5.58988C4.40988 6.95988 4.40988 9.16988 5.77988 10.5399C7.13988 11.9099 9.35988 11.9099 10.7299 10.5399Z" fill="white"/>
</svg>
