<svg width="20" height="20" viewBox="0 0 20 20" fill="none" xmlns="http://www.w3.org/2000/svg">
<path d="M16.22 5.79993C16.69 6.48993 16.51 7.41993 15.82 7.87993C15.13 8.34993 14.2 8.16993 13.74 7.47993C13.58 7.23993 13.39 7.01993 13.19 6.80993C12.98 6.60993 12.76 6.41993 12.52 6.25993C12.28 6.09993 12.02 5.95993 11.75 5.84993C11.48 5.72993 11.2 5.63993 10.91 5.58993C10.32 5.45993 9.68 5.45993 9.09 5.57993C8.8 5.63993 8.52 5.72993 8.25 5.84993C7.98 5.95993 7.72 6.09993 7.48 6.25993C7.24 6.41993 7.02 6.60993 6.82 6.80993C6.61 7.01993 6.42 7.23993 6.26 7.47993C6.1 7.71993 5.96 7.97993 5.85 8.23993C5.84 8.25993 5.84 8.26993 5.84 8.27993C5.74 8.51993 5.67 8.75993 5.61 8.99993H1V5.99993H3.66C3.7 5.92993 3.73 5.86993 3.78 5.79993C4.05 5.39993 4.35 5.02993 4.69 4.68993C5.03 4.34993 5.41 4.03993 5.8 3.77993C6.2 3.50993 6.63 3.26993 7.08 3.07993C7.53 2.88993 8.01 2.73993 8.49 2.64993C9.48 2.43993 10.52 2.43993 11.51 2.64993C11.99 2.73993 12.47 2.88993 12.92 3.07993C13.37 3.26993 13.8 3.50993 14.2 3.77993C14.59 4.03993 14.97 4.34993 15.31 4.68993C15.65 5.02993 15.95 5.39993 16.22 5.79993ZM12.5 9.99993C12.5 8.61993 11.38 7.49993 10 7.49993C8.62 7.49993 7.5 8.61993 7.5 9.99993C7.5 11.3799 8.62 12.4999 10 12.4999C11.38 12.4999 12.5 11.3799 12.5 9.99993ZM3.78 14.1999C3.31 13.5099 3.49 12.5799 4.18 12.1099C4.87 11.6499 5.8 11.8299 6.26 12.5199C6.42 12.7599 6.61 12.9799 6.81 13.1899C7.02 13.3899 7.24 13.5799 7.48 13.7399C7.72 13.8999 7.98 14.0399 8.25 14.1499C8.52 14.2699 8.8 14.3499 9.09 14.4099C9.68 14.5399 10.32 14.5299 10.91 14.4099C11.2 14.3499 11.48 14.2699 11.75 14.1499C12.02 14.0399 12.28 13.8999 12.52 13.7399C12.76 13.5799 12.98 13.3899 13.18 13.1899C13.39 12.9799 13.58 12.7499 13.74 12.5199C13.9 12.2699 14.04 12.0199 14.15 11.7599C14.16 11.7399 14.16 11.7299 14.16 11.7199C14.26 11.4799 14.33 11.2399 14.39 10.9999H19V13.9999H16.34C16.3 14.0599 16.27 14.1299 16.22 14.1999C15.95 14.5999 15.65 14.9699 15.31 15.3099C14.97 15.6499 14.59 15.9599 14.2 16.2199C13.8 16.4899 13.37 16.7299 12.92 16.9199C12.47 17.1099 11.99 17.2499 11.51 17.3499C10.52 17.5599 9.48 17.5599 8.49 17.3499C8.01 17.2499 7.53 17.1099 7.08 16.9199C6.63 16.7299 6.2 16.4899 5.8 16.2199C5.41 15.9599 5.03 15.6499 4.69 15.3099C4.35 14.9699 4.05 14.5999 3.78 14.1999Z" fill="white"/>
</svg>
