<svg width="20" height="20" viewBox="0 0 20 20" fill="none" xmlns="http://www.w3.org/2000/svg">
<path d="M7.00002 5.19995C8.10002 5.19995 9.00002 6.08995 9.00002 7.19995C9.00002 7.56995 8.89002 7.90995 8.72002 8.19995C8.72002 8.19995 8.00002 7.99995 7.00002 7.99995C6.00002 7.99995 5.28002 8.19995 5.28002 8.19995C5.11002 7.90995 5.00002 7.56995 5.00002 7.19995C5.00002 6.08995 5.90002 5.19995 7.00002 5.19995ZM13 5.19995C14.11 5.19995 15 6.08995 15 7.19995C15 7.56995 14.89 7.90995 14.72 8.19995C14.72 8.19995 14 7.99995 13 7.99995C12 7.99995 11.28 8.19995 11.28 8.19995C11.11 7.90995 11 7.56995 11 7.19995C11 6.08995 11.89 5.19995 13 5.19995ZM10 18.9C13.72 18.9 17.03 16.54 18.23 13.02L16.91 12.56C15.9 15.52 13.12 17.5 10 17.5C6.88002 17.5 4.10002 15.52 3.09002 12.56L1.77002 13.02C2.97002 16.54 6.28002 18.9 10 18.9Z" fill="white"/>
</svg>
