<svg width="20" height="20" viewBox="0 0 20 20" fill="none" xmlns="http://www.w3.org/2000/svg">
<path d="M7.28011 18C7.13011 18.02 7.02011 17.98 6.87011 17.93C6.31011 17.74 6.04011 17.14 6.21011 16.58C6.38011 16.03 7.21011 13.54 7.21011 13C7.21011 12.47 6.46011 12 5.86011 12H2.86011C2.26011 12 1.86011 11.6 1.86011 11C1.86011 10.4 3.86011 4 3.86011 4C4.03011 3.61 4.41011 3 4.86011 3H14.0001V12H11.8601C11.4501 12.41 8.56011 16.71 8.28011 17.27C8.07011 17.68 7.68011 17.95 7.28011 18ZM18.0001 12H16.0001V3H18.0001V12Z" fill="white"/>
</svg>
