<svg width="20" height="20" viewBox="0 0 20 20" fill="none" xmlns="http://www.w3.org/2000/svg">
<path d="M12.72 1.99989C12.87 1.97989 12.98 2.01989 13.13 2.06989C13.69 2.25989 13.96 2.85989 13.79 3.41989C13.62 3.96989 12.79 6.45989 12.79 6.99989C12.79 7.52989 13.54 7.99989 14.14 7.99989H17.14C17.74 7.99989 18.14 8.39989 18.14 8.99989C18.14 9.59989 16.14 15.9999 16.14 15.9999C15.97 16.3899 15.59 16.9999 15.14 16.9999H6V7.99989H8.14C8.55 7.58989 11.44 3.28989 11.72 2.72989C11.93 2.31989 12.32 2.04989 12.72 1.99989ZM2 7.99989H4V16.9999H2V7.99989Z" fill="white"/>
</svg>
