<svg width="20" height="20" viewBox="0 0 20 20" fill="none" xmlns="http://www.w3.org/2000/svg">
<path d="M18.9401 4.45999C18.4501 5.18999 17.8301 5.83999 17.1101 6.35999C17.1201 6.50999 17.1201 6.66999 17.1201 6.82999C17.1201 11.68 13.4301 17.27 6.69006 17.27C4.62006 17.27 2.69006 16.66 1.06006 15.62C1.35006 15.65 1.64006 15.67 1.94006 15.67C3.66006 15.67 5.24006 15.08 6.49006 14.1C4.89006 14.07 3.54006 13.01 3.07006 11.55C3.29006 11.59 3.52006 11.62 3.76006 11.62C4.09006 11.62 4.42006 11.57 4.72006 11.49C3.05006 11.15 1.78006 9.66999 1.78006 7.88999V7.84999C2.28006 8.11999 2.84006 8.28999 3.44006 8.30999C2.46006 7.64999 1.81006 6.52999 1.81006 5.24999C1.81006 4.57999 1.99006 3.94999 2.31006 3.40999C4.12006 5.62999 6.82006 7.08999 9.87006 7.23999C9.81006 6.96999 9.77006 6.68999 9.77006 6.39999C9.77006 4.37999 11.4201 2.73999 13.4401 2.73999C14.5001 2.73999 15.4501 3.17999 16.1201 3.89999C16.9501 3.72999 17.7401 3.42999 18.4501 3.00999C18.1701 3.85999 17.5901 4.57999 16.8301 5.02999C17.5801 4.94999 18.2801 4.74999 18.9401 4.45999Z" fill="white"/>
</svg>
