<svg width="20" height="20" viewBox="0 0 20 20" fill="none" xmlns="http://www.w3.org/2000/svg">
<path d="M9.9999 2.6001C10.8299 2.6001 11.4999 3.2701 11.4999 4.1001C11.4999 4.9301 10.8299 5.6101 9.9999 5.6101C9.1799 5.6101 8.4999 4.9301 8.4999 4.1001C8.4999 3.2701 9.1799 2.6001 9.9999 2.6001ZM3.3999 7.3601C3.3999 6.7101 9.9999 6.6001 9.9999 6.6001C9.9999 6.6001 16.5999 6.7101 16.5999 7.3601C16.5999 8.0101 12.1299 8.7601 12.1299 8.7601C12.1299 8.7601 13.8199 16.9001 13.1899 17.1401C12.5699 17.3801 9.9999 11.9501 9.9999 11.9501C9.9999 11.9501 7.4399 17.3801 6.8199 17.1401C6.1899 16.9001 7.8799 8.7601 7.8799 8.7601C7.8799 8.7601 3.3999 8.0101 3.3999 7.3601Z" fill="white"/>
</svg>
