<svg width="20" height="20" viewBox="0 0 20 20" fill="none" xmlns="http://www.w3.org/2000/svg">
<path d="M19 10C19 5.03 14.97 1 10 1C5.03 1 1 5.03 1 10C1 14.97 5.03 19 10 19C14.97 19 19 14.97 19 10ZM10 2.6C10.83 2.6 11.5 3.27 11.5 4.1C11.5 4.93 10.83 5.61 10 5.61C9.18 5.61 8.5 4.93 8.5 4.1C8.5 3.27 9.18 2.6 10 2.6ZM3.4 7.36C3.4 6.71 10 6.6 10 6.6C10 6.6 16.6 6.71 16.6 7.36C16.6 8.01 12.13 8.76 12.13 8.76C12.13 8.76 13.82 16.9 13.19 17.14C12.57 17.38 10 11.95 10 11.95C10 11.95 7.44 17.38 6.82 17.14C6.19 16.9 7.88 8.76 7.88 8.76C7.88 8.76 3.4 8.01 3.4 7.36Z" fill="white"/>
</svg>
