<svg width="20" height="20" viewBox="0 0 20 20" fill="none" xmlns="http://www.w3.org/2000/svg">
<path d="M10.2 3.28003C13.73 3.28003 16.6301 5.89003 17.1201 9.28003H19.2001L15.7 13.28L12.2 9.28003H14.52C14.07 7.31003 12.31 5.83003 10.2 5.83003C8.75005 5.83003 7.47005 6.54003 6.66005 7.61003L4.95005 5.66003C6.23005 4.20003 8.11005 3.28003 10.2 3.28003ZM9.80005 16.72C6.28005 16.72 3.37005 14.11 2.88005 10.72H0.800049L4.30005 6.72003C5.47005 8.05003 6.63005 9.39003 7.80005 10.72H5.48005C5.93005 12.69 7.69005 14.17 9.80005 14.17C11.25 14.17 12.53 13.46 13.34 12.39L15.05 14.34C13.77 15.8 11.9 16.72 9.80005 16.72Z" fill="white"/>
</svg>
