<svg width="20" height="20" viewBox="0 0 20 20" fill="none" xmlns="http://www.w3.org/2000/svg">
<path d="M18.2999 9.50011C14.9999 4.90011 8.4999 3.80011 3.8999 7.20011C2.6999 8.10011 1.6999 9.30011 0.899902 10.6001C1.0999 11.0001 1.3999 11.4001 1.6999 11.8001C4.9999 16.4001 11.2999 17.4001 15.8999 14.2001C16.7999 13.5001 17.5999 12.8001 18.2999 11.8001C18.5999 11.4001 18.7999 11.0001 19.0999 10.6001C18.7999 10.2001 18.5999 9.80011 18.2999 9.50011ZM10.0999 7.20011C10.5999 6.70011 11.3999 6.70011 11.8999 7.20011C12.3999 7.70011 12.3999 8.50011 11.8999 9.00011C11.3999 9.50011 10.5999 9.50011 10.0999 9.00011C9.5999 8.50011 9.5999 7.70011 10.0999 7.20011ZM9.9999 14.9001C6.8999 14.9001 3.9999 13.3001 2.2999 10.7001C3.4999 9.00011 5.0999 7.80011 6.9999 7.20011C6.2999 8.00011 5.9999 8.90011 5.9999 9.90011C5.9999 12.1001 7.6999 14.0001 9.9999 14.0001C12.1999 14.0001 14.0999 12.3001 14.0999 10.0001V9.90011C14.0999 8.90011 13.6999 7.90011 12.9999 7.20011C14.8999 7.80011 16.4999 9.00011 17.6999 10.7001C15.9999 13.3001 13.0999 14.9001 9.9999 14.9001Z" fill="white"/>
</svg>
