<svg width="20" height="20" viewBox="0 0 20 20" fill="none" xmlns="http://www.w3.org/2000/svg">
<path d="M17.7 5.30009C17.5 4.60009 17 4.10009 16.3 3.90009C14.2 3.70009 12.1 3.50008 10 3.60008C7.9 3.60008 5.8 3.70009 3.7 3.90009C3.1 4.10009 2.5 4.70009 2.3 5.30009C2.1 6.90009 2 8.40008 2 10.0001C2 11.6001 2.1 13.1001 2.3 14.7001C2.5 15.4001 3 15.9001 3.7 16.1001C5.8 16.3001 7.9 16.5001 10 16.4001C12.1 16.4001 14.2 16.3001 16.3 16.1001C17 15.9001 17.5 15.4001 17.7 14.7001C17.9 13.2001 18 11.6001 18 10.0001C18 8.40008 17.9 6.90009 17.7 5.30009ZM8 13.0001V7.00009L13.2 10.0001L8 13.0001Z" fill="white"/>
</svg>
